{"glyphs":{"0":{"ha":986,"x_min":90,"x_max":896,"o":"m 896 488 q 867 295 896 386 q 786 135 839 204 q 659 24 733 65 q 492 -17 585 -17 q 324 24 399 -17 q 198 133 250 64 q 118 292 146 201 q 90 485 90 383 q 119 677 90 586 q 200 838 147 768 q 327 948 253 907 q 494 989 401 989 q 662 949 588 989 q 788 840 736 908 q 868 680 840 771 q 896 488 896 589 m 821 485 q 798 649 821 569 q 732 790 775 729 q 628 887 689 850 q 492 924 567 924 q 356 888 417 924 q 253 791 296 851 q 188 651 211 731 q 165 488 165 572 q 188 322 165 401 q 254 183 211 243 q 358 85 297 122 q 494 49 419 49 q 630 85 569 49 q 733 181 690 121 q 798 320 775 242 q 821 485 821 399 "},"1":{"ha":465,"x_min":42,"x_max":319,"o":"m 42 897 l 264 979 l 319 979 l 319 0 l 249 0 l 249 904 l 61 840 l 42 897 "},"2":{"ha":819,"x_min":67,"x_max":731,"o":"m 425 922 q 267 876 332 922 q 140 742 201 829 l 86 778 q 152 865 118 826 q 227 930 186 903 q 318 972 268 957 q 432 986 368 986 q 547 966 494 986 q 638 910 600 946 q 699 824 676 874 q 721 718 721 775 q 707 624 721 668 q 663 537 693 581 q 588 445 633 493 q 478 339 542 397 l 181 69 l 731 69 l 731 0 l 67 0 l 67 54 l 429 382 q 531 481 489 436 q 597 564 572 525 q 633 639 622 603 q 644 714 644 675 q 626 800 644 761 q 578 866 608 839 q 508 908 549 893 q 425 922 468 922 "},"3":{"ha":847,"x_min":75,"x_max":749,"o":"m 635 904 l 125 904 l 125 972 l 733 972 l 733 921 l 404 544 q 536 522 474 540 q 646 469 599 503 q 721 385 693 435 q 749 268 749 335 q 723 151 749 204 q 653 61 697 99 q 552 3 610 24 q 432 -17 494 -17 q 224 32 313 -17 q 75 158 135 81 l 131 204 q 263 89 189 129 q 433 49 338 49 q 526 65 482 49 q 602 109 569 81 q 654 177 635 138 q 674 265 674 217 q 651 356 674 317 q 588 423 628 396 q 492 464 547 450 q 371 478 436 478 l 318 478 l 300 518 l 635 904 "},"4":{"ha":922,"x_min":67,"x_max":846,"o":"m 622 979 l 688 979 l 688 300 l 846 300 l 846 238 l 688 238 l 688 0 l 618 0 l 618 238 l 92 238 l 67 292 l 622 979 m 618 300 l 618 875 l 154 300 l 618 300 "},"5":{"ha":840,"x_min":79,"x_max":758,"o":"m 142 501 l 169 972 l 715 972 l 715 903 l 233 903 l 210 539 q 307 577 257 563 q 425 592 357 592 q 556 570 496 592 q 662 510 617 549 q 733 417 707 471 q 758 297 758 363 q 733 170 758 228 q 662 71 707 113 q 555 6 617 29 q 419 -17 493 -17 q 231 29 319 -17 q 79 140 143 75 l 131 192 q 271 87 197 125 q 422 49 344 49 q 528 67 481 49 q 610 119 576 86 q 664 198 644 153 q 683 294 683 243 q 664 388 683 346 q 609 461 644 431 q 524 509 574 492 q 417 526 475 526 q 296 508 349 526 q 197 465 243 490 l 142 501 "},"6":{"ha":892,"x_min":89,"x_max":800,"o":"m 765 876 l 719 821 q 606 897 663 871 q 479 924 549 924 q 345 887 406 924 q 243 783 285 850 q 180 624 201 717 q 161 419 158 531 q 210 487 182 454 q 274 544 238 519 q 358 585 311 569 q 465 600 406 600 q 593 578 532 600 q 700 518 654 557 q 773 424 746 479 q 800 304 800 369 q 774 176 800 235 q 701 74 747 117 q 594 7 656 31 q 460 -17 532 -17 q 321 10 385 -17 q 213 81 257 36 q 159 146 182 111 q 120 225 136 181 q 97 327 104 269 q 89 461 89 385 q 117 667 89 571 q 196 835 144 764 q 321 948 247 907 q 485 989 394 989 q 635 959 568 989 q 765 876 701 929 m 725 301 q 706 394 725 351 q 651 469 686 438 q 567 518 615 500 q 461 536 519 536 q 351 515 401 536 q 266 460 301 494 q 210 383 231 426 q 190 294 190 340 q 211 197 190 242 q 269 119 232 151 q 356 67 306 86 q 465 49 407 49 q 572 69 524 49 q 653 123 619 89 q 706 203 688 157 q 725 301 725 249 "},"7":{"ha":815,"x_min":94,"x_max":739,"o":"m 94 903 l 94 972 l 739 972 l 739 919 l 296 0 l 217 0 l 658 903 l 94 903 "},"8":{"ha":875,"x_min":76,"x_max":799,"o":"m 799 261 q 771 149 799 200 q 694 63 743 99 q 580 6 646 26 q 438 -14 514 -14 q 295 6 361 -14 q 181 63 229 26 q 104 149 132 99 q 76 261 76 200 q 93 342 76 304 q 138 410 110 379 q 206 464 167 440 q 292 503 246 488 q 223 538 256 517 q 165 588 190 560 q 125 651 140 615 q 110 731 110 686 q 138 835 110 788 q 211 915 165 882 q 316 967 257 949 q 438 986 375 986 q 559 967 500 986 q 664 915 618 949 q 738 835 710 882 q 765 731 765 788 q 750 651 765 686 q 710 588 735 615 q 652 538 685 560 q 583 503 619 517 q 669 464 629 488 q 737 410 708 440 q 782 342 765 379 q 799 261 799 304 m 690 731 q 671 807 690 772 q 617 867 651 842 q 537 907 583 893 q 438 921 490 921 q 338 907 385 921 q 258 867 292 893 q 204 807 224 842 q 185 731 185 772 q 205 648 185 685 q 260 585 225 611 q 340 544 294 558 q 438 529 386 529 q 535 544 489 529 q 615 585 581 558 q 670 648 650 611 q 690 731 690 685 m 724 258 q 701 342 724 304 q 640 409 679 381 q 549 453 601 438 q 438 468 497 468 q 326 453 378 468 q 235 409 274 438 q 174 342 196 381 q 151 258 151 304 q 171 179 151 217 q 227 113 190 142 q 317 68 264 85 q 438 51 371 51 q 558 68 504 51 q 648 113 611 85 q 704 179 685 142 q 724 258 724 217 "},"9":{"ha":892,"x_min":92,"x_max":803,"o":"m 803 510 q 773 298 803 394 q 690 131 743 201 q 564 22 636 61 q 407 -17 492 -17 q 245 18 315 -17 q 114 104 175 53 l 160 160 q 282 76 222 104 q 408 49 342 49 q 543 86 482 49 q 647 190 604 124 q 713 349 690 257 q 731 550 735 440 q 681 478 710 513 q 615 419 653 444 q 531 378 578 393 q 428 363 485 363 q 292 385 354 363 q 186 449 231 408 q 117 544 142 489 q 92 661 92 599 q 117 789 92 729 q 187 893 142 849 q 294 963 232 938 q 433 989 357 989 q 574 962 513 989 q 681 890 636 935 q 733 826 710 861 q 771 744 756 790 q 794 641 786 699 q 803 510 803 583 m 701 675 q 681 772 701 726 q 624 851 660 818 q 536 904 588 885 q 425 924 485 924 q 317 902 365 924 q 236 844 269 881 q 185 762 203 808 q 167 664 167 715 q 186 569 167 613 q 241 494 206 525 q 324 444 276 463 q 431 426 372 426 q 543 448 493 426 q 628 504 593 469 q 683 584 664 539 q 701 675 701 629 "}," ":{"ha":417,"x_min":0,"x_max":0,"o":""},"!":{"ha":350,"x_min":129,"x_max":221,"o":"m 135 972 l 215 972 l 215 875 l 194 254 l 156 254 l 135 875 l 135 972 m 221 0 l 129 0 l 129 118 l 221 118 l 221 0 "},"\"":{"ha":569,"x_min":94,"x_max":483,"o":"m 344 619 l 393 972 l 483 972 l 483 965 l 385 619 l 344 619 m 94 619 l 143 972 l 233 972 l 233 965 l 135 619 l 94 619 "},"#":{"ha":972,"x_min":68,"x_max":903,"o":"m 903 653 l 725 653 l 668 325 l 847 325 l 847 260 l 657 260 l 613 0 l 546 0 l 590 260 l 303 260 l 258 0 l 192 0 l 236 260 l 68 260 l 68 325 l 247 325 l 304 653 l 124 653 l 124 718 l 315 718 l 358 972 l 425 972 l 382 718 l 669 718 l 713 972 l 779 972 l 736 718 l 903 718 l 903 653 m 658 653 l 371 653 l 314 325 l 601 325 l 658 653 "},"$":{"ha":878,"x_min":83,"x_max":776,"o":"m 776 257 q 755 156 776 201 q 694 76 733 110 q 599 22 654 42 q 479 0 544 3 l 479 -136 l 413 -136 l 413 1 q 238 47 317 10 q 83 150 158 83 l 129 204 q 263 108 194 143 q 415 65 331 72 l 415 460 q 281 500 338 476 q 190 556 225 524 q 138 628 154 588 q 121 721 121 668 q 142 819 121 774 q 203 897 164 864 q 295 951 242 931 q 413 972 349 971 l 413 1053 l 479 1053 l 479 969 q 622 934 560 963 q 747 856 685 906 l 701 801 q 592 875 647 850 q 476 907 538 900 l 476 517 q 706 421 635 483 q 776 257 776 358 m 415 531 l 415 910 q 324 894 365 908 q 253 854 282 879 q 208 797 224 829 q 192 726 192 764 q 201 663 192 692 q 236 610 211 635 q 304 567 261 586 q 415 531 347 547 m 706 251 q 696 317 706 288 q 660 369 686 346 q 589 412 633 393 q 476 446 544 431 l 476 63 q 570 79 528 64 q 643 119 613 94 q 690 178 674 144 q 706 251 706 211 "},"%":{"ha":1144,"x_min":76,"x_max":1068,"o":"m 504 736 q 489 641 504 686 q 445 562 474 596 q 377 507 417 528 q 289 486 338 486 q 201 506 240 486 q 135 560 163 526 q 92 640 107 594 q 76 733 76 685 q 92 828 76 783 q 135 908 107 874 q 203 963 164 942 q 292 983 243 983 q 378 963 339 983 q 446 909 418 943 q 489 830 474 875 q 504 736 504 785 m 967 972 l 253 0 l 178 0 l 892 972 l 967 972 m 1068 239 q 1053 144 1068 189 q 1009 65 1038 99 q 941 10 981 31 q 853 -11 901 -11 q 765 9 804 -11 q 699 63 726 29 q 656 142 671 97 q 640 236 640 188 q 656 331 640 286 q 699 410 671 376 q 767 465 728 444 q 856 486 807 486 q 942 466 903 486 q 1010 412 982 446 q 1053 333 1038 378 q 1068 239 1068 288 m 432 733 q 421 810 432 775 q 390 870 410 844 q 344 910 369 896 q 289 924 318 924 q 233 909 258 924 q 188 869 207 894 q 159 810 169 844 q 149 736 149 775 q 160 660 149 694 q 191 599 171 625 q 237 560 211 574 q 292 546 263 546 q 348 560 322 546 q 392 600 374 575 q 422 659 411 625 q 432 733 432 693 m 996 236 q 985 313 996 278 q 953 373 974 347 q 908 413 933 399 q 853 426 882 426 q 797 412 822 426 q 752 372 771 397 q 723 313 733 347 q 713 239 713 278 q 724 163 713 197 q 755 102 735 128 q 801 63 775 76 q 856 49 826 49 q 912 63 886 49 q 956 103 938 78 q 985 162 975 128 q 996 236 996 196 "},"&":{"ha":967,"x_min":68,"x_max":921,"o":"m 921 28 l 864 -19 l 696 154 q 546 30 626 74 q 367 -14 465 -14 q 248 6 303 -14 q 153 61 193 25 q 91 147 114 97 q 68 257 68 196 q 134 428 68 357 q 319 543 200 499 q 238 655 264 606 q 211 767 211 704 q 229 855 211 814 q 279 926 247 896 q 356 972 311 956 q 454 989 401 989 q 542 972 501 989 q 613 927 583 956 q 660 860 643 899 q 678 776 678 821 q 615 623 678 683 q 439 524 551 563 l 694 261 q 762 371 731 311 q 821 497 793 431 l 886 471 q 817 331 853 396 q 742 213 782 265 l 921 28 m 606 774 q 562 884 606 840 q 451 928 518 928 q 383 915 414 928 q 331 882 353 903 q 296 832 308 861 q 283 769 283 803 q 289 724 283 746 q 308 680 294 703 q 342 630 321 657 q 396 568 364 603 q 606 774 606 635 m 650 201 l 363 499 q 193 395 246 458 q 140 260 140 332 q 157 176 140 215 q 204 109 174 138 q 276 65 235 81 q 368 49 318 49 q 519 90 450 49 q 650 201 589 131 "},"'":{"ha":319,"x_min":94,"x_max":233,"o":"m 94 619 l 143 972 l 233 972 l 233 965 l 135 619 l 94 619 "},"(":{"ha":597,"x_min":99,"x_max":513,"o":"m 513 947 q 259 710 347 846 q 171 399 171 574 q 259 88 171 224 q 513 -150 347 -49 l 483 -196 q 199 58 299 -92 q 99 399 99 208 q 199 739 99 589 q 483 993 299 889 l 513 947 "},")":{"ha":597,"x_min":85,"x_max":499,"o":"m 85 947 l 114 993 q 399 739 299 889 q 499 399 499 589 q 399 58 499 208 q 114 -196 299 -92 l 85 -150 q 338 88 250 -49 q 426 399 426 224 q 338 710 426 574 q 85 947 250 846 "},"*":{"ha":597,"x_min":104,"x_max":493,"o":"m 493 692 l 463 640 l 315 740 l 328 564 l 269 564 l 282 740 l 135 640 l 104 692 l 268 769 l 104 847 l 135 899 l 282 799 l 269 975 l 328 975 l 315 799 l 463 899 l 493 847 l 329 769 l 493 692 "},"+":{"ha":889,"x_min":108,"x_max":781,"o":"m 410 522 l 410 821 l 479 821 l 479 522 l 781 522 l 781 456 l 479 456 l 479 157 l 410 157 l 410 456 l 108 456 l 108 522 l 410 522 "},",":{"ha":319,"x_min":74,"x_max":206,"o":"m 74 -114 q 136 -65 118 -90 q 151 0 154 -40 l 114 0 l 114 118 l 206 118 l 206 15 q 179 -87 206 -50 q 90 -149 153 -125 l 74 -114 "},"-":{"ha":567,"x_min":97,"x_max":469,"o":"m 469 374 l 97 374 l 97 451 l 469 451 l 469 374 "},".":{"ha":319,"x_min":114,"x_max":206,"o":"m 206 0 l 114 0 l 114 118 l 206 118 l 206 0 "},"/":{"ha":694,"x_min":-25,"x_max":699,"o":"m 631 1108 l 699 1108 l 43 -178 l -25 -178 l 631 1108 "},":":{"ha":333,"x_min":121,"x_max":213,"o":"m 213 590 l 121 590 l 121 708 l 213 708 l 213 590 m 213 0 l 121 0 l 121 118 l 213 118 l 213 0 "},";":{"ha":333,"x_min":81,"x_max":213,"o":"m 213 590 l 121 590 l 121 708 l 213 708 l 213 590 m 81 -114 q 143 -65 125 -90 q 158 0 161 -40 l 121 0 l 121 118 l 213 118 l 213 15 q 186 -87 213 -50 q 97 -149 160 -125 l 81 -114 "},"<":{"ha":889,"x_min":101,"x_max":746,"o":"m 101 517 l 746 851 l 746 776 l 186 490 l 746 201 l 746 126 l 101 461 l 101 517 "},"=":{"ha":889,"x_min":129,"x_max":760,"o":"m 129 681 l 760 681 l 760 610 l 129 610 l 129 681 m 129 368 l 760 368 l 760 297 l 129 297 l 129 368 "},">":{"ha":889,"x_min":143,"x_max":788,"o":"m 788 461 l 143 126 l 143 201 l 703 488 l 143 776 l 143 851 l 788 517 l 788 461 "},"?":{"ha":742,"x_min":47,"x_max":669,"o":"m 307 486 q 521 549 446 489 q 596 710 596 608 q 580 791 596 753 q 534 858 564 829 q 461 904 504 888 q 365 921 418 921 q 217 883 282 921 q 97 778 151 844 l 47 819 q 182 939 107 893 q 368 985 257 985 q 492 963 436 985 q 588 905 549 942 q 648 818 626 868 q 669 713 669 768 q 646 597 669 647 q 583 512 622 547 q 489 456 543 476 q 375 428 435 435 l 363 254 l 318 254 l 300 479 l 307 486 m 386 0 l 294 0 l 294 118 l 386 118 l 386 0 "},"@":{"ha":1361,"x_min":74,"x_max":1288,"o":"m 1288 439 q 1265 286 1288 350 q 1206 181 1242 222 q 1124 121 1169 140 q 1035 101 1079 101 q 913 136 961 101 q 846 231 864 171 q 801 181 825 204 q 747 140 776 157 q 684 112 718 122 q 608 101 650 101 q 513 119 558 101 q 435 170 468 138 q 382 248 401 203 q 363 349 363 293 q 391 487 363 424 q 466 596 419 550 q 570 668 513 642 q 686 694 628 694 q 761 684 728 694 q 819 656 794 674 q 863 615 844 638 q 893 571 881 593 l 913 675 l 979 667 l 928 374 q 915 274 915 300 q 948 183 915 214 q 1040 151 981 151 q 1113 168 1076 151 q 1177 219 1149 185 q 1223 309 1206 254 q 1240 439 1240 364 q 1198 626 1240 535 q 1081 788 1156 717 q 903 901 1006 858 q 682 944 801 944 q 458 900 561 944 q 281 778 356 856 q 163 599 206 701 q 121 381 121 497 q 163 162 121 264 q 281 -17 206 60 q 463 -137 357 -93 q 693 -181 568 -181 q 878 -157 797 -181 q 1040 -86 960 -133 l 1061 -121 q 891 -197 981 -169 q 693 -225 801 -225 q 447 -177 560 -225 q 250 -47 333 -129 q 120 146 167 36 q 74 381 74 256 q 121 616 74 506 q 250 809 168 726 q 443 940 332 892 q 682 989 554 989 q 920 944 810 989 q 1113 824 1031 900 q 1241 649 1194 749 q 1288 439 1288 549 m 869 435 q 856 511 869 476 q 817 572 842 546 q 759 613 793 599 q 686 628 725 628 q 594 607 639 628 q 513 549 549 586 q 456 463 478 513 q 435 354 435 413 q 486 216 435 265 q 619 167 538 167 q 713 190 668 167 q 793 250 758 213 q 849 335 828 288 q 869 435 869 383 "},"A":{"ha":1097,"x_min":61,"x_max":1036,"o":"m 1036 0 l 957 0 l 833 272 l 260 272 l 136 0 l 61 0 l 514 979 l 583 979 l 1036 0 m 803 338 l 547 900 l 290 338 l 803 338 "},"B":{"ha":1003,"x_min":144,"x_max":915,"o":"m 915 265 q 890 155 915 204 q 819 72 865 106 q 710 19 774 38 q 567 0 646 0 l 144 0 l 144 972 l 546 972 q 675 956 617 972 q 774 908 733 939 q 838 832 815 876 q 861 733 861 788 l 861 731 q 847 643 861 681 q 808 578 832 606 q 755 531 785 550 q 696 500 725 513 q 779 470 739 489 q 849 423 819 451 q 897 356 879 394 q 915 268 915 318 l 915 265 m 788 724 l 788 726 q 725 856 788 807 q 544 906 663 906 l 217 906 l 217 524 l 538 524 q 638 537 592 524 q 717 575 683 550 q 769 638 750 600 q 788 724 788 675 m 842 265 l 842 268 q 766 408 842 358 q 546 457 690 457 l 217 457 l 217 67 l 569 67 q 768 120 694 67 q 842 265 842 174 "},"C":{"ha":1025,"x_min":101,"x_max":971,"o":"m 971 153 q 891 84 932 115 q 803 31 850 53 q 703 -4 757 8 q 585 -17 649 -17 q 392 22 481 -17 q 238 128 303 61 q 138 288 174 196 q 101 483 101 379 l 101 486 q 138 681 101 589 q 240 841 175 772 q 393 949 304 910 q 588 989 482 989 q 706 978 653 989 q 803 946 758 967 q 888 897 849 925 q 965 833 928 868 l 914 781 q 847 838 882 811 q 773 883 813 864 q 687 913 733 901 q 586 924 640 924 q 424 890 499 924 q 294 798 349 857 q 208 660 239 739 q 176 489 176 581 l 176 486 q 208 315 176 394 q 295 176 240 235 q 425 83 350 117 q 588 49 500 49 q 771 88 693 49 q 922 200 849 126 l 971 153 "},"D":{"ha":1086,"x_min":144,"x_max":985,"o":"m 985 486 q 947 294 985 383 q 841 140 910 206 q 677 38 772 75 q 468 0 582 0 l 144 0 l 144 972 l 468 972 q 677 935 582 972 q 841 833 772 899 q 947 680 910 768 q 985 489 985 592 l 985 486 m 910 483 l 910 486 q 878 649 910 572 q 790 782 847 725 q 651 872 733 839 q 468 906 569 906 l 217 906 l 217 67 l 468 67 q 651 99 569 67 q 790 188 733 132 q 878 320 847 244 q 910 483 910 396 "},"E":{"ha":931,"x_min":144,"x_max":843,"o":"m 843 0 l 144 0 l 144 972 l 836 972 l 836 906 l 217 906 l 217 524 l 774 524 l 774 457 l 217 457 l 217 67 l 843 67 l 843 0 "},"F":{"ha":911,"x_min":144,"x_max":829,"o":"m 829 906 l 217 906 l 217 507 l 767 507 l 767 440 l 217 440 l 217 0 l 144 0 l 144 972 l 829 972 l 829 906 "},"G":{"ha":1089,"x_min":101,"x_max":972,"o":"m 972 129 q 808 27 906 71 q 590 -17 710 -17 q 384 23 475 -17 q 231 131 293 63 q 135 290 168 199 q 101 483 101 381 l 101 486 q 135 676 101 585 q 233 836 169 767 q 385 947 296 906 q 582 989 474 989 q 691 981 642 989 q 783 956 740 972 q 863 915 825 939 q 938 861 901 892 l 890 807 q 760 890 833 857 q 578 924 688 924 q 415 889 489 924 q 288 794 342 854 q 206 656 235 735 q 176 489 176 576 l 176 486 q 205 311 176 392 q 288 172 233 231 q 419 81 342 114 q 593 47 496 47 q 683 56 639 47 q 767 81 728 65 q 842 116 807 96 q 903 158 876 136 l 903 438 l 578 438 l 578 504 l 972 504 l 972 129 "},"H":{"ha":1056,"x_min":144,"x_max":911,"o":"m 911 0 l 839 0 l 839 456 l 217 456 l 217 0 l 144 0 l 144 972 l 217 972 l 217 522 l 839 522 l 839 972 l 911 972 l 911 0 "},"I":{"ha":381,"x_min":154,"x_max":226,"o":"m 226 0 l 154 0 l 154 972 l 226 972 l 226 0 "},"J":{"ha":763,"x_min":51,"x_max":633,"o":"m 633 317 q 611 173 633 235 q 550 69 589 111 q 458 7 511 28 q 346 -14 406 -14 q 167 37 238 -14 q 51 168 96 88 l 111 206 q 158 139 133 168 q 210 90 182 110 q 273 61 239 71 q 350 51 307 51 q 433 68 394 51 q 501 117 472 85 q 545 199 529 150 q 561 311 561 247 l 561 972 l 633 972 l 633 317 "},"K":{"ha":993,"x_min":144,"x_max":953,"o":"m 953 0 l 858 0 l 458 492 l 217 247 l 217 0 l 144 0 l 144 972 l 217 972 l 217 333 l 836 972 l 935 972 l 510 543 l 953 0 "},"L":{"ha":860,"x_min":144,"x_max":788,"o":"m 788 0 l 144 0 l 144 972 l 217 972 l 217 67 l 788 67 l 788 0 "},"M":{"ha":1206,"x_min":144,"x_max":1061,"o":"m 1061 0 l 989 0 l 989 844 l 604 285 l 599 285 l 214 844 l 214 0 l 144 0 l 144 972 l 213 972 l 603 397 l 993 972 l 1061 972 l 1061 0 "},"N":{"ha":1097,"x_min":144,"x_max":953,"o":"m 953 0 l 899 0 l 214 864 l 214 0 l 144 0 l 144 972 l 213 972 l 883 126 l 883 972 l 953 972 l 953 0 "},"O":{"ha":1181,"x_min":101,"x_max":1081,"o":"m 1079 486 q 1044 295 1079 386 q 944 135 1008 204 q 790 24 881 65 q 589 -17 699 -17 q 388 24 478 -17 q 235 134 299 65 q 136 293 171 203 q 101 483 101 383 l 101 486 q 137 677 101 586 q 236 838 172 768 q 390 948 300 907 q 592 989 481 989 q 792 948 701 989 q 946 838 882 907 q 1044 679 1010 769 q 1079 489 1079 589 q 1079 486 1081 488 m 1004 483 l 1004 486 q 973 656 1004 576 q 887 795 942 736 q 756 889 832 854 q 589 924 679 924 q 423 890 499 924 q 292 797 347 856 q 207 658 238 738 q 176 489 176 579 l 176 486 q 208 316 176 396 q 294 177 239 236 q 425 83 349 118 q 592 49 501 49 q 758 83 682 49 q 888 176 833 117 q 974 314 943 235 q 1004 483 1004 393 "},"P":{"ha":928,"x_min":144,"x_max":858,"o":"m 858 672 q 828 538 858 596 q 745 440 797 479 q 624 382 693 401 q 479 363 556 363 l 217 363 l 217 0 l 144 0 l 144 972 l 497 972 q 644 952 578 972 q 758 894 710 932 q 832 801 806 856 q 858 675 858 746 l 858 672 m 786 668 l 786 671 q 765 773 786 729 q 704 846 743 817 q 611 890 665 875 q 492 906 557 906 l 217 906 l 217 429 l 483 429 q 607 446 551 429 q 702 494 663 463 q 764 569 742 525 q 786 668 786 614 "},"Q":{"ha":1181,"x_min":101,"x_max":1090,"o":"m 1090 26 l 1039 -29 l 903 94 q 762 13 840 42 q 589 -17 683 -17 q 388 24 478 -17 q 235 134 299 65 q 136 293 171 203 q 101 483 101 383 l 101 486 q 137 677 101 586 q 236 838 172 768 q 390 948 300 907 q 592 989 481 989 q 792 948 701 989 q 946 838 882 907 q 1044 679 1010 769 q 1079 489 1079 589 q 1079 486 1081 488 q 1047 301 1079 389 q 951 143 1014 213 l 1090 26 m 1004 483 l 1004 486 q 973 656 1004 576 q 887 795 942 736 q 756 889 832 854 q 589 924 679 924 q 423 890 499 924 q 292 797 347 856 q 207 658 238 738 q 176 489 176 579 l 176 486 q 208 316 176 396 q 294 177 239 236 q 425 83 349 118 q 592 49 501 49 q 733 73 668 49 q 850 140 799 97 l 661 301 l 713 358 l 899 189 q 976 323 949 247 q 1004 483 1004 399 "},"R":{"ha":1004,"x_min":144,"x_max":936,"o":"m 936 0 l 844 0 l 535 403 l 217 403 l 217 0 l 144 0 l 144 972 l 553 972 q 696 952 632 972 q 805 895 760 932 q 875 808 850 858 q 900 696 900 757 l 900 693 q 878 584 900 632 q 819 501 857 536 q 728 445 781 467 q 615 415 676 424 l 936 0 m 828 690 l 828 693 q 755 849 828 792 q 549 906 682 906 l 217 906 l 217 468 l 544 468 q 658 483 606 468 q 747 527 710 499 q 806 597 785 556 q 828 690 828 638 "},"S":{"ha":889,"x_min":82,"x_max":796,"o":"m 796 251 q 772 144 796 193 q 705 60 747 94 q 603 6 663 25 q 474 -14 544 -14 q 263 25 357 -14 q 82 142 169 64 l 129 196 q 209 131 169 158 q 290 87 249 104 q 378 60 332 69 q 478 51 424 51 q 578 66 532 51 q 656 106 624 81 q 706 167 688 132 q 724 244 724 203 l 724 247 q 712 317 724 286 q 669 372 700 347 q 585 417 638 397 q 449 454 532 438 q 299 497 361 472 q 197 553 236 521 q 139 629 157 586 q 121 728 121 672 l 121 731 q 144 831 121 785 q 210 913 168 878 q 308 967 251 947 q 433 986 365 986 q 616 957 539 986 q 767 868 693 928 l 721 811 q 581 896 651 871 q 431 921 511 921 q 333 906 376 921 q 258 867 289 892 q 210 808 226 842 q 193 738 193 775 l 193 735 q 205 665 193 696 q 248 608 217 633 q 335 561 279 582 q 476 522 390 540 q 721 424 646 488 q 796 254 796 361 l 796 251 "},"T":{"ha":900,"x_min":75,"x_max":825,"o":"m 825 906 l 486 906 l 486 0 l 414 0 l 414 906 l 75 906 l 75 972 l 825 972 l 825 906 "},"U":{"ha":1056,"x_min":129,"x_max":926,"o":"m 926 413 q 897 228 926 308 q 815 94 868 149 q 690 13 763 40 q 528 -15 617 -15 q 367 12 440 -15 q 241 92 294 39 q 158 224 188 146 q 129 404 129 301 l 129 972 l 201 972 l 201 411 q 288 144 201 238 q 531 50 375 50 q 664 72 604 50 q 766 139 724 94 q 831 250 808 183 q 854 404 854 317 l 854 972 l 926 972 l 926 413 "},"V":{"ha":1042,"x_min":61,"x_max":981,"o":"m 981 972 l 553 -7 l 489 -7 l 61 972 l 142 972 l 522 78 l 904 972 l 981 972 "},"W":{"ha":1531,"x_min":69,"x_max":1461,"o":"m 1461 972 l 1108 -7 l 1050 -7 l 765 838 l 481 -7 l 422 -7 l 69 972 l 150 972 l 456 107 l 740 975 l 796 975 l 1081 107 l 1386 972 l 1461 972 "},"X":{"ha":1003,"x_min":71,"x_max":932,"o":"m 932 0 l 846 0 l 500 449 l 156 0 l 71 0 l 458 496 l 85 972 l 171 972 l 503 544 l 833 972 l 918 972 l 546 497 l 932 0 "},"Y":{"ha":994,"x_min":44,"x_max":950,"o":"m 950 972 l 533 386 l 533 0 l 461 0 l 461 385 l 44 972 l 135 972 l 499 450 l 864 972 l 950 972 "},"Z":{"ha":956,"x_min":94,"x_max":863,"o":"m 863 0 l 94 0 l 94 40 l 760 907 l 118 907 l 118 972 l 863 972 l 863 932 l 197 65 l 863 65 l 863 0 "},"[":{"ha":597,"x_min":136,"x_max":515,"o":"m 515 972 l 515 919 l 200 919 l 200 -128 l 515 -128 l 515 -181 l 136 -181 l 136 972 l 515 972 "},"\\":{"ha":694,"x_min":-4,"x_max":719,"o":"m 64 1108 l 719 -178 l 651 -178 l -4 1108 l 64 1108 "},"]":{"ha":597,"x_min":82,"x_max":461,"o":"m 82 972 l 461 972 l 461 -181 l 82 -181 l 82 -128 l 397 -128 l 397 919 l 82 919 l 82 972 "},"^":{"ha":694,"x_min":97,"x_max":597,"o":"m 346 917 l 168 685 l 97 685 l 317 976 l 378 976 l 597 685 l 524 685 l 346 917 "},"_":{"ha":833,"x_min":-3,"x_max":836,"o":"m -3 -161 l 836 -161 l 836 -222 l -3 -222 l -3 -161 "},"`":{"ha":694,"x_min":218,"x_max":425,"o":"m 367 826 l 218 969 l 303 1011 l 425 826 l 367 826 "},"a":{"ha":797,"x_min":71,"x_max":682,"o":"m 682 0 l 615 0 l 615 118 q 572 69 597 93 q 513 26 546 44 q 437 -5 479 7 q 344 -17 394 -17 q 246 -3 294 -17 q 158 39 197 11 q 95 108 119 67 q 71 206 71 150 l 71 208 q 94 307 71 264 q 157 379 117 350 q 254 424 197 408 q 381 439 311 439 q 510 431 456 439 q 615 408 564 422 l 615 439 q 553 601 615 547 q 382 656 492 656 q 263 640 317 656 q 160 599 208 624 l 135 658 q 253 703 193 686 q 386 719 313 719 q 603 650 524 719 q 682 442 682 581 l 682 0 m 617 265 l 617 346 q 513 367 572 357 q 376 378 453 378 q 203 333 264 378 q 143 213 143 288 l 143 210 q 160 141 143 171 q 205 90 176 111 q 271 58 233 69 q 349 47 308 47 q 451 63 403 47 q 537 108 500 79 q 595 176 574 136 q 617 265 617 217 "},"b":{"ha":917,"x_min":129,"x_max":833,"o":"m 833 354 q 803 199 833 268 q 725 83 774 131 q 615 9 676 35 q 489 -17 553 -17 q 392 -3 436 -17 q 312 35 347 11 q 248 89 276 58 q 197 153 219 119 l 197 0 l 129 0 l 129 1014 l 197 1014 l 197 550 q 249 617 219 585 q 313 672 278 649 q 392 710 349 696 q 489 725 436 725 q 615 700 553 725 q 725 628 676 675 q 803 512 774 581 q 833 357 833 443 l 833 354 m 760 351 l 760 354 q 738 481 760 424 q 677 577 715 538 q 588 638 639 617 q 482 660 538 660 q 374 638 426 660 q 282 575 322 615 q 217 479 242 535 q 193 356 193 424 l 193 353 q 217 228 193 285 q 282 133 242 172 q 374 71 322 93 q 482 49 426 49 q 591 69 540 49 q 679 129 642 90 q 738 224 717 168 q 760 351 760 281 "},"c":{"ha":793,"x_min":81,"x_max":731,"o":"m 731 124 q 608 23 676 63 q 442 -17 539 -17 q 299 13 365 -17 q 185 93 233 43 q 108 210 136 143 q 81 351 81 276 l 81 354 q 108 496 81 429 q 185 614 136 563 q 299 695 233 665 q 442 725 365 725 q 533 715 492 725 q 608 686 574 704 q 672 644 643 668 q 725 594 700 621 l 676 544 q 575 626 631 592 q 440 661 519 661 q 327 638 379 661 q 237 573 275 614 q 176 476 199 532 q 154 357 154 421 l 154 354 q 177 234 154 290 q 240 136 200 178 q 332 71 279 94 q 446 47 385 47 q 580 81 521 47 q 683 165 639 115 l 731 124 "},"d":{"ha":917,"x_min":83,"x_max":788,"o":"m 788 0 l 719 0 l 719 158 q 667 92 696 124 q 603 36 639 60 q 524 -2 568 13 q 428 -17 481 -17 q 302 8 364 -17 q 192 81 240 33 q 113 197 143 128 q 83 351 83 265 l 83 354 q 113 509 83 440 q 192 626 143 578 q 302 699 240 674 q 428 725 364 725 q 525 711 481 725 q 605 674 569 697 q 669 619 640 650 q 719 556 697 589 l 719 1014 l 788 1014 l 788 0 m 724 353 l 724 356 q 699 480 724 424 q 635 576 675 536 q 542 638 594 615 q 435 660 490 660 q 326 639 376 660 q 238 579 275 618 q 178 484 200 540 q 157 357 157 428 l 157 354 q 179 228 157 285 q 240 131 201 171 q 328 70 278 92 q 435 49 379 49 q 542 71 490 49 q 635 133 594 93 q 699 229 675 174 q 724 353 724 285 "},"e":{"ha":811,"x_min":81,"x_max":742,"o":"m 153 326 q 182 208 157 260 q 244 121 207 157 q 330 66 282 85 q 431 47 378 47 q 572 79 514 47 q 674 158 629 111 l 721 117 q 598 21 667 58 q 428 -17 529 -17 q 295 10 358 -17 q 184 85 232 36 q 108 201 136 133 q 81 353 81 269 l 81 356 q 106 499 81 432 q 177 617 132 567 q 283 696 222 667 q 417 725 344 725 q 551 697 492 725 q 653 618 611 668 q 719 501 696 568 q 742 354 742 433 l 742 351 q 742 339 742 344 q 740 326 742 335 l 153 326 m 153 388 l 668 388 q 647 491 664 442 q 598 578 629 540 q 521 640 567 617 q 414 663 475 663 q 315 642 361 663 q 235 584 269 621 q 179 497 201 547 q 153 388 157 446 "},"f":{"ha":503,"x_min":68,"x_max":488,"o":"m 488 938 q 433 951 457 947 q 382 956 410 956 q 239 776 239 956 l 239 708 l 486 708 l 486 646 l 239 646 l 239 0 l 171 0 l 171 646 l 68 646 l 68 708 l 171 708 l 171 778 q 226 956 171 893 q 382 1018 282 1018 q 439 1014 414 1018 q 488 1001 464 1010 l 488 938 "},"g":{"ha":917,"x_min":83,"x_max":788,"o":"m 788 110 q 762 -33 788 29 q 690 -138 736 -96 q 579 -203 643 -181 q 440 -225 515 -225 q 115 -117 261 -225 l 156 -61 q 442 -161 285 -161 q 553 -144 503 -161 q 641 -92 604 -126 q 699 -6 678 -57 q 719 114 719 46 l 719 217 q 667 154 696 183 q 601 102 638 125 q 521 66 565 79 q 424 53 476 53 q 299 76 360 53 q 190 144 238 100 q 113 249 142 188 q 83 386 83 310 l 83 389 q 113 528 83 465 q 190 634 142 590 q 299 701 238 678 q 424 725 360 725 q 522 712 476 725 q 603 677 567 699 q 668 626 639 656 q 719 567 697 597 l 719 708 l 788 708 l 788 110 m 724 388 l 724 390 q 699 501 724 451 q 633 587 674 551 q 539 641 592 622 q 431 660 486 660 q 325 641 375 660 q 238 588 275 622 q 178 503 200 553 q 157 392 157 454 l 157 389 q 179 279 157 329 q 239 194 201 229 q 326 138 276 158 q 431 118 376 118 q 539 138 486 118 q 633 192 592 157 q 699 277 674 228 q 724 388 724 326 "},"h":{"ha":851,"x_min":129,"x_max":736,"o":"m 736 0 l 668 0 l 668 421 q 610 597 668 531 q 443 663 551 663 q 346 644 390 663 q 268 592 301 625 q 216 512 235 558 q 197 410 197 465 l 197 0 l 129 0 l 129 1014 l 197 1014 l 197 576 q 294 682 233 639 q 453 725 356 725 q 572 703 519 725 q 662 643 625 682 q 717 551 699 604 q 736 433 736 497 l 736 0 "},"i":{"ha":346,"x_min":131,"x_max":215,"o":"m 215 893 l 131 893 l 131 986 l 215 986 l 215 893 m 207 0 l 139 0 l 139 708 l 207 708 l 207 0 "},"j":{"ha":346,"x_min":-1,"x_max":215,"o":"m 215 893 l 131 893 l 131 986 l 215 986 l 215 893 m 207 -62 q 166 -186 207 -146 q 56 -226 125 -226 q -1 -221 26 -226 l -1 -161 q 27 -165 11 -164 q 54 -165 43 -165 q 115 -141 92 -165 q 139 -67 139 -117 l 139 708 l 207 708 l 207 -62 "},"k":{"ha":778,"x_min":129,"x_max":736,"o":"m 736 0 l 650 0 l 369 346 l 197 172 l 197 0 l 129 0 l 129 1014 l 197 1014 l 197 254 l 636 708 l 726 708 l 417 394 l 736 0 "},"l":{"ha":346,"x_min":139,"x_max":207,"o":"m 207 0 l 139 0 l 139 1014 l 207 1014 l 207 0 "},"m":{"ha":1321,"x_min":129,"x_max":1200,"o":"m 1200 0 l 1132 0 l 1132 421 q 1076 599 1132 536 q 922 663 1021 663 q 837 646 878 663 q 765 597 796 629 q 717 519 735 565 q 699 413 699 472 l 699 0 l 631 0 l 631 425 q 575 599 631 536 q 424 663 519 663 q 335 643 376 663 q 263 589 293 624 q 215 508 232 554 q 197 408 197 463 l 197 0 l 129 0 l 129 708 l 197 708 l 197 582 q 235 635 214 610 q 285 681 257 661 q 349 713 313 701 q 433 725 386 725 q 517 713 479 725 q 585 679 556 700 q 635 631 614 658 q 672 572 657 603 q 713 629 689 601 q 767 678 736 657 q 838 713 799 700 q 928 725 878 725 q 1041 703 990 725 q 1127 644 1092 682 q 1181 551 1163 606 q 1200 429 1200 496 l 1200 0 "},"n":{"ha":851,"x_min":129,"x_max":736,"o":"m 736 0 l 668 0 l 668 421 q 610 597 668 531 q 443 663 551 663 q 346 644 390 663 q 268 592 301 625 q 216 512 235 558 q 197 410 197 465 l 197 0 l 129 0 l 129 708 l 197 708 l 197 576 q 294 682 233 639 q 453 725 356 725 q 572 703 519 725 q 662 643 625 682 q 717 551 699 604 q 736 433 736 497 l 736 0 "},"o":{"ha":889,"x_min":81,"x_max":808,"o":"m 808 354 q 781 213 808 279 q 705 94 754 146 q 589 13 656 43 q 443 -17 522 -17 q 298 13 364 -17 q 183 93 232 43 q 108 210 135 143 q 81 351 81 276 l 81 354 q 108 496 81 429 q 184 614 135 563 q 300 695 233 665 q 446 725 367 725 q 591 695 525 725 q 706 615 657 665 q 781 499 754 565 q 808 357 808 432 l 808 354 m 735 351 l 735 354 q 713 474 735 418 q 651 572 690 531 q 558 638 611 614 q 443 661 504 661 q 327 637 381 661 q 235 572 274 613 q 176 475 197 531 q 154 357 154 419 l 154 354 q 176 234 154 290 q 238 136 199 178 q 331 71 278 94 q 446 47 385 47 q 562 72 508 47 q 653 137 615 96 q 713 233 692 178 q 735 351 735 289 "},"p":{"ha":917,"x_min":129,"x_max":833,"o":"m 833 354 q 803 199 833 268 q 725 83 774 131 q 615 9 676 35 q 489 -17 553 -17 q 392 -3 436 -17 q 312 35 347 11 q 248 89 276 58 q 197 153 219 119 l 197 -222 l 129 -222 l 129 708 l 197 708 l 197 550 q 249 617 219 585 q 313 672 278 649 q 392 710 349 696 q 489 725 436 725 q 615 700 553 725 q 725 628 676 675 q 803 512 774 581 q 833 357 833 443 l 833 354 m 760 351 l 760 354 q 738 481 760 424 q 677 577 715 538 q 588 638 639 617 q 482 660 538 660 q 374 638 426 660 q 282 575 322 615 q 217 479 242 535 q 193 356 193 424 l 193 353 q 217 228 193 285 q 282 133 242 172 q 374 71 322 93 q 482 49 426 49 q 591 69 540 49 q 679 129 642 90 q 738 224 717 168 q 760 351 760 281 "},"q":{"ha":917,"x_min":83,"x_max":788,"o":"m 788 -222 l 719 -222 l 719 158 q 667 92 696 124 q 603 36 639 60 q 524 -2 568 13 q 428 -17 481 -17 q 302 8 364 -17 q 192 81 240 33 q 113 197 143 128 q 83 351 83 265 l 83 354 q 113 509 83 440 q 192 626 143 578 q 302 699 240 674 q 428 725 364 725 q 525 711 481 725 q 605 674 569 697 q 669 619 640 650 q 719 556 697 589 l 719 708 l 788 708 l 788 -222 m 724 353 l 724 356 q 699 480 724 424 q 635 576 675 536 q 542 638 594 615 q 435 660 490 660 q 326 639 376 660 q 238 579 275 618 q 178 484 200 540 q 157 357 157 428 l 157 354 q 179 228 157 285 q 240 131 201 171 q 328 70 278 92 q 435 49 379 49 q 542 71 490 49 q 635 133 594 93 q 699 229 675 174 q 724 353 724 285 "},"r":{"ha":556,"x_min":129,"x_max":511,"o":"m 511 644 l 504 644 q 388 622 443 644 q 290 553 332 599 q 222 442 247 508 q 197 290 197 376 l 197 0 l 129 0 l 129 708 l 197 708 l 197 507 q 250 594 218 554 q 322 663 282 635 q 410 706 363 692 q 511 719 458 721 l 511 644 "},"s":{"ha":690,"x_min":68,"x_max":603,"o":"m 603 193 q 584 108 603 146 q 532 42 565 69 q 454 1 499 15 q 358 -14 410 -14 q 203 15 281 -14 q 68 89 125 43 l 108 143 q 231 74 167 99 q 363 50 294 50 q 484 86 435 50 q 533 185 533 122 l 533 188 q 518 240 533 218 q 476 279 503 263 q 417 307 450 296 q 346 329 383 318 q 259 356 303 342 q 181 391 215 369 q 124 444 146 413 q 103 524 103 476 l 103 526 q 120 605 103 569 q 168 667 138 640 q 242 708 199 693 q 336 722 285 722 q 467 701 400 722 q 588 644 535 681 l 551 588 q 447 639 503 619 q 333 658 390 658 q 216 623 260 658 q 172 535 172 588 l 172 532 q 189 481 172 503 q 233 444 206 460 q 296 417 260 429 q 369 394 332 406 q 454 367 413 382 q 529 330 496 353 q 583 275 563 307 q 603 196 603 243 l 603 193 "},"t":{"ha":556,"x_min":64,"x_max":483,"o":"m 481 13 q 426 -6 453 0 q 365 -12 399 -12 q 288 -1 324 -12 q 224 34 251 10 q 182 95 197 58 q 167 182 167 132 l 167 646 l 64 646 l 64 708 l 167 708 l 167 935 l 235 935 l 235 708 l 483 708 l 483 646 l 235 646 l 235 189 q 274 82 235 113 q 376 51 314 51 q 426 57 403 51 q 481 76 450 63 l 481 13 "},"u":{"ha":851,"x_min":115,"x_max":722,"o":"m 722 0 l 654 0 l 654 132 q 557 26 618 69 q 399 -17 496 -17 q 279 5 332 -17 q 190 65 226 26 q 134 158 153 104 q 115 275 115 211 l 115 708 l 183 708 l 183 288 q 242 112 183 178 q 408 46 300 46 q 505 65 460 46 q 583 117 550 83 q 635 197 617 150 q 654 299 654 243 l 654 708 l 722 708 l 722 0 "},"v":{"ha":808,"x_min":57,"x_max":751,"o":"m 751 708 l 433 -6 l 375 -6 l 57 708 l 136 708 l 404 76 l 675 708 l 751 708 "},"w":{"ha":1196,"x_min":68,"x_max":1128,"o":"m 1128 708 l 868 -6 l 810 -6 l 599 601 l 386 -6 l 328 -6 l 68 708 l 144 708 l 358 86 l 572 711 l 626 711 l 840 86 l 1054 708 l 1128 708 "},"x":{"ha":792,"x_min":63,"x_max":729,"o":"m 729 0 l 644 0 l 394 315 l 144 0 l 63 0 l 353 361 l 74 708 l 158 708 l 397 408 l 636 708 l 718 708 l 439 363 l 729 0 "},"y":{"ha":817,"x_min":54,"x_max":758,"o":"m 758 708 l 451 -25 q 348 -181 404 -136 q 215 -226 292 -226 q 143 -219 175 -226 q 75 -196 111 -211 l 99 -136 q 153 -156 126 -150 q 219 -162 179 -162 q 271 -154 247 -162 q 315 -126 294 -146 q 356 -74 336 -106 q 394 4 375 -42 l 54 708 l 133 708 l 428 75 l 683 708 l 758 708 "},"z":{"ha":769,"x_min":81,"x_max":693,"o":"m 693 0 l 81 0 l 81 39 l 592 647 l 100 647 l 100 708 l 693 708 l 693 669 l 182 61 l 693 61 l 693 0 "},"{":{"ha":667,"x_min":82,"x_max":588,"o":"m 588 949 q 461 907 508 928 q 390 858 414 886 q 360 793 367 831 q 353 703 353 756 l 353 599 q 342 519 353 553 q 313 463 332 486 q 268 424 294 439 q 208 399 242 408 q 270 372 243 388 q 315 334 297 357 q 343 278 333 311 q 353 199 353 244 l 353 94 q 360 4 353 42 q 390 -61 367 -33 q 461 -110 414 -89 q 588 -151 508 -131 l 578 -196 q 427 -152 485 -178 q 338 -92 369 -126 q 296 -12 307 -57 q 285 86 285 32 l 285 196 q 277 269 285 236 q 251 324 269 301 q 199 360 232 347 q 118 372 167 372 l 82 372 l 82 425 l 118 425 q 199 438 167 425 q 251 473 232 450 q 277 528 269 496 q 285 601 285 561 l 285 711 q 296 810 285 765 q 338 889 307 854 q 427 949 369 924 q 578 993 485 975 l 588 949 "},"|":{"ha":397,"x_min":168,"x_max":229,"o":"m 229 -178 l 168 -178 l 168 1108 l 229 1108 l 229 -178 "},"}":{"ha":667,"x_min":79,"x_max":585,"o":"m 79 -151 q 206 -110 158 -131 q 276 -61 253 -89 q 307 4 300 -33 q 314 94 314 42 l 314 199 q 324 278 314 244 q 353 335 335 311 q 399 374 372 358 q 458 399 425 389 q 397 425 424 410 q 351 463 369 440 q 324 519 333 486 q 314 599 314 553 l 314 703 q 307 793 314 756 q 276 858 300 831 q 206 907 253 886 q 79 949 158 928 l 89 993 q 240 949 182 975 q 328 889 297 924 q 371 810 360 854 q 382 711 382 765 l 382 601 q 390 528 382 561 q 416 473 397 496 q 467 438 435 450 q 549 425 500 425 l 585 425 l 585 372 l 549 372 q 467 360 500 372 q 416 324 435 347 q 390 269 397 301 q 382 196 382 236 l 382 86 q 371 -12 382 32 q 328 -92 360 -57 q 240 -152 297 -126 q 89 -196 182 -178 l 79 -151 "},"~":{"ha":639,"x_min":114,"x_max":525,"o":"m 525 478 q 478 376 506 403 q 408 349 450 349 q 365 358 389 349 q 317 377 342 367 q 271 397 293 388 q 231 406 249 406 q 191 391 206 406 q 161 336 176 376 l 114 349 q 161 451 133 424 q 231 478 189 478 q 274 469 250 478 q 322 449 297 460 q 368 430 346 439 q 408 421 390 421 q 448 435 433 421 q 478 490 463 450 l 525 478 "},"Ä":{"ha":1097,"x_min":61,"x_max":1036,"o":"m 1036 0 l 957 0 l 833 272 l 260 272 l 136 0 l 61 0 l 514 979 l 583 979 l 1036 0 m 803 338 l 547 900 l 290 338 l 803 338 m 710 1063 l 614 1063 l 614 1174 l 710 1174 l 710 1063 m 483 1063 l 388 1063 l 388 1174 l 483 1174 l 483 1063 "},"Å":{"ha":1097,"x_min":61,"x_max":1036,"o":"m 496 942 q 436 989 460 957 q 413 1061 413 1021 q 424 1112 413 1088 q 453 1153 435 1136 q 497 1181 472 1171 q 549 1192 521 1192 q 600 1181 575 1192 q 644 1153 625 1171 q 674 1112 663 1136 q 685 1061 685 1088 q 661 989 685 1021 q 601 942 638 957 l 1036 0 l 957 0 l 833 272 l 260 272 l 136 0 l 61 0 l 496 942 m 635 1061 q 610 1122 635 1097 q 549 1147 585 1147 q 488 1122 513 1147 q 463 1061 463 1097 q 488 1000 463 1025 q 549 975 513 975 q 610 1000 585 975 q 635 1061 635 1025 m 803 338 l 547 900 l 290 338 l 803 338 "},"Ç":{"ha":1025,"x_min":101,"x_max":971,"o":"m 539 -15 q 363 35 443 -7 q 225 144 283 78 q 134 298 167 211 q 101 485 101 385 q 138 681 101 589 q 240 841 175 772 q 393 949 304 910 q 588 989 482 989 q 706 978 653 989 q 803 946 758 967 q 888 897 849 925 q 965 833 928 868 l 914 781 q 847 838 882 811 q 773 883 813 864 q 687 913 733 901 q 586 924 640 924 q 424 890 499 924 q 294 799 349 857 q 208 660 239 740 q 176 488 176 581 q 208 315 176 394 q 295 176 240 235 q 425 83 350 117 q 588 49 500 49 q 771 88 693 49 q 922 200 849 126 l 971 153 q 894 86 933 117 q 811 33 856 56 q 715 -2 767 11 q 603 -17 664 -15 l 510 -206 l 433 -169 l 539 -15 "},"É":{"ha":931,"x_min":144,"x_max":843,"o":"m 843 0 l 144 0 l 144 972 l 836 972 l 836 906 l 217 906 l 217 524 l 774 524 l 774 457 l 217 457 l 217 67 l 843 67 l 843 0 m 488 1063 l 429 1063 l 551 1247 l 636 1206 l 488 1063 "},"Ñ":{"ha":1097,"x_min":144,"x_max":953,"o":"m 953 0 l 899 0 l 214 864 l 214 0 l 144 0 l 144 972 l 213 972 l 883 126 l 883 972 l 953 972 l 953 0 m 754 1192 q 707 1090 735 1117 q 638 1063 679 1063 q 594 1072 618 1063 q 547 1091 571 1081 q 500 1110 522 1101 q 460 1119 478 1119 q 420 1105 435 1119 q 390 1050 406 1090 l 343 1063 q 390 1165 363 1138 q 460 1192 418 1192 q 503 1183 479 1192 q 551 1163 526 1174 q 597 1144 575 1153 q 638 1135 619 1135 q 677 1149 663 1135 q 707 1204 692 1164 l 754 1192 "},"Ö":{"ha":1181,"x_min":101,"x_max":1081,"o":"m 1079 486 q 1044 295 1079 386 q 944 135 1008 204 q 790 24 881 65 q 589 -17 699 -17 q 388 24 478 -17 q 235 134 299 65 q 136 293 171 203 q 101 483 101 383 l 101 486 q 137 677 101 586 q 236 838 172 768 q 390 948 300 907 q 592 989 481 989 q 792 948 701 989 q 946 838 882 907 q 1044 679 1010 769 q 1079 489 1079 589 q 1079 486 1081 488 m 1004 483 l 1004 486 q 973 656 1004 576 q 887 795 942 736 q 756 889 832 854 q 589 924 679 924 q 423 890 499 924 q 292 797 347 856 q 207 658 238 738 q 176 489 176 579 l 176 486 q 208 316 176 396 q 294 177 239 236 q 425 83 349 118 q 592 49 501 49 q 758 83 682 49 q 888 176 833 117 q 974 314 943 235 q 1004 483 1004 393 m 751 1063 l 656 1063 l 656 1174 l 751 1174 l 751 1063 m 525 1063 l 429 1063 l 429 1174 l 525 1174 l 525 1063 "},"Ü":{"ha":1056,"x_min":129,"x_max":926,"o":"m 926 413 q 897 228 926 308 q 815 94 868 149 q 690 13 763 40 q 528 -15 617 -15 q 367 12 440 -15 q 241 92 294 39 q 158 224 188 146 q 129 404 129 301 l 129 972 l 201 972 l 201 411 q 288 144 201 238 q 531 50 375 50 q 664 72 604 50 q 766 139 724 94 q 831 250 808 183 q 854 404 854 317 l 854 972 l 926 972 l 926 413 m 689 1056 l 593 1056 l 593 1167 l 689 1167 l 689 1056 m 463 1056 l 367 1056 l 367 1167 l 463 1167 l 463 1056 "},"á":{"ha":797,"x_min":71,"x_max":682,"o":"m 682 0 l 615 0 l 615 118 q 572 69 597 93 q 513 26 546 44 q 437 -5 479 7 q 344 -17 394 -17 q 246 -3 294 -17 q 158 39 197 11 q 95 108 119 67 q 71 206 71 150 l 71 208 q 94 307 71 264 q 157 379 117 350 q 254 424 197 408 q 381 439 311 439 q 510 431 456 439 q 615 408 564 422 l 615 439 q 553 601 615 547 q 382 656 492 656 q 263 640 317 656 q 160 599 208 624 l 135 658 q 253 703 193 686 q 386 719 313 719 q 603 650 524 719 q 682 442 682 581 l 682 0 m 617 265 l 617 346 q 513 367 572 357 q 376 378 453 378 q 203 333 264 378 q 143 213 143 288 l 143 210 q 160 141 143 171 q 205 90 176 111 q 271 58 233 69 q 349 47 308 47 q 451 63 403 47 q 537 108 500 79 q 595 176 574 136 q 617 265 617 217 m 414 826 l 356 826 l 478 1011 l 563 969 l 414 826 "},"à":{"ha":797,"x_min":71,"x_max":682,"o":"m 682 0 l 615 0 l 615 118 q 572 69 597 93 q 513 26 546 44 q 437 -5 479 7 q 344 -17 394 -17 q 246 -3 294 -17 q 158 39 197 11 q 95 108 119 67 q 71 206 71 150 l 71 208 q 94 307 71 264 q 157 379 117 350 q 254 424 197 408 q 381 439 311 439 q 510 431 456 439 q 615 408 564 422 l 615 439 q 553 601 615 547 q 382 656 492 656 q 263 640 317 656 q 160 599 208 624 l 135 658 q 253 703 193 686 q 386 719 313 719 q 603 650 524 719 q 682 442 682 581 l 682 0 m 617 265 l 617 346 q 513 367 572 357 q 376 378 453 378 q 203 333 264 378 q 143 213 143 288 l 143 210 q 160 141 143 171 q 205 90 176 111 q 271 58 233 69 q 349 47 308 47 q 451 63 403 47 q 537 108 500 79 q 595 176 574 136 q 617 265 617 217 m 367 826 l 218 969 l 303 1011 l 425 826 l 367 826 "},"â":{"ha":797,"x_min":71,"x_max":682,"o":"m 682 0 l 615 0 l 615 118 q 572 69 597 93 q 513 26 546 44 q 437 -5 479 7 q 344 -17 394 -17 q 246 -3 294 -17 q 158 39 197 11 q 95 108 119 67 q 71 206 71 150 l 71 208 q 94 307 71 264 q 157 379 117 350 q 254 424 197 408 q 381 439 311 439 q 510 431 456 439 q 615 408 564 422 l 615 439 q 553 601 615 547 q 382 656 492 656 q 263 640 317 656 q 160 599 208 624 l 135 658 q 253 703 193 686 q 386 719 313 719 q 603 650 524 719 q 682 442 682 581 l 682 0 m 617 265 l 617 346 q 513 367 572 357 q 376 378 453 378 q 203 333 264 378 q 143 213 143 288 l 143 210 q 160 141 143 171 q 205 90 176 111 q 271 58 233 69 q 349 47 308 47 q 451 63 403 47 q 537 108 500 79 q 595 176 574 136 q 617 265 617 217 m 401 921 l 299 826 l 236 826 l 375 996 l 431 996 l 569 826 l 504 826 l 401 921 "},"ä":{"ha":797,"x_min":71,"x_max":682,"o":"m 682 0 l 615 0 l 615 118 q 572 69 597 93 q 513 26 546 44 q 437 -5 479 7 q 344 -17 394 -17 q 246 -3 294 -17 q 158 39 197 11 q 95 108 119 67 q 71 206 71 150 l 71 208 q 94 307 71 264 q 157 379 117 350 q 254 424 197 408 q 381 439 311 439 q 510 431 456 439 q 615 408 564 422 l 615 439 q 553 601 615 547 q 382 656 492 656 q 263 640 317 656 q 160 599 208 624 l 135 658 q 253 703 193 686 q 386 719 313 719 q 603 650 524 719 q 682 442 682 581 l 682 0 m 617 265 l 617 346 q 513 367 572 357 q 376 378 453 378 q 203 333 264 378 q 143 213 143 288 l 143 210 q 160 141 143 171 q 205 90 176 111 q 271 58 233 69 q 349 47 308 47 q 451 63 403 47 q 537 108 500 79 q 595 176 574 136 q 617 265 617 217 m 564 826 l 468 826 l 468 938 l 564 938 l 564 826 m 338 826 l 242 826 l 242 938 l 338 938 l 338 826 "},"ã":{"ha":797,"x_min":71,"x_max":682,"o":"m 682 0 l 615 0 l 615 118 q 572 69 597 93 q 513 26 546 44 q 437 -5 479 7 q 344 -17 394 -17 q 246 -3 294 -17 q 158 39 197 11 q 95 108 119 67 q 71 206 71 150 l 71 208 q 94 307 71 264 q 157 379 117 350 q 254 424 197 408 q 381 439 311 439 q 510 431 456 439 q 615 408 564 422 l 615 439 q 553 601 615 547 q 382 656 492 656 q 263 640 317 656 q 160 599 208 624 l 135 658 q 253 703 193 686 q 386 719 313 719 q 603 650 524 719 q 682 442 682 581 l 682 0 m 617 265 l 617 346 q 513 367 572 357 q 376 378 453 378 q 203 333 264 378 q 143 213 143 288 l 143 210 q 160 141 143 171 q 205 90 176 111 q 271 58 233 69 q 349 47 308 47 q 451 63 403 47 q 537 108 500 79 q 595 176 574 136 q 617 265 617 217 m 608 956 q 561 853 589 881 q 492 826 533 826 q 449 835 472 826 q 401 855 425 844 q 354 874 376 865 q 314 883 332 883 q 274 869 289 883 q 244 814 260 854 l 197 826 q 244 928 217 901 q 314 956 272 956 q 357 947 333 956 q 405 927 381 938 q 451 908 429 917 q 492 899 474 899 q 531 913 517 899 q 561 968 546 928 l 608 956 "},"å":{"ha":797,"x_min":71,"x_max":682,"o":"m 682 0 l 615 0 l 615 118 q 572 69 597 93 q 513 26 546 44 q 437 -5 479 7 q 344 -17 394 -17 q 246 -3 294 -17 q 158 39 197 11 q 95 108 119 67 q 71 206 71 150 l 71 208 q 94 307 71 264 q 157 379 117 350 q 254 424 197 408 q 381 439 311 439 q 510 431 456 439 q 615 408 564 422 l 615 439 q 553 601 615 547 q 382 656 492 656 q 263 640 317 656 q 160 599 208 624 l 135 658 q 253 703 193 686 q 386 719 313 719 q 603 650 524 719 q 682 442 682 581 l 682 0 m 617 265 l 617 346 q 513 367 572 357 q 376 378 453 378 q 203 333 264 378 q 143 213 143 288 l 143 210 q 160 141 143 171 q 205 90 176 111 q 271 58 233 69 q 349 47 308 47 q 451 63 403 47 q 537 108 500 79 q 595 176 574 136 q 617 265 617 217 m 539 954 q 528 903 539 926 q 498 862 517 879 q 454 834 479 844 q 403 824 429 824 q 351 834 375 824 q 308 862 326 844 q 278 903 289 879 q 267 954 267 926 q 278 1005 267 981 q 308 1047 289 1029 q 351 1074 326 1064 q 403 1085 375 1085 q 454 1074 429 1085 q 498 1047 479 1064 q 528 1005 517 1029 q 539 954 539 981 m 489 954 q 464 1015 489 990 q 403 1040 439 1040 q 342 1015 367 1040 q 317 954 317 990 q 342 893 317 918 q 403 868 367 868 q 464 893 439 868 q 489 954 489 918 "},"ç":{"ha":793,"x_min":81,"x_max":731,"o":"m 394 -14 q 269 27 326 -6 q 169 109 211 60 q 104 221 128 158 q 81 353 81 283 q 108 495 81 428 q 185 614 136 563 q 299 695 233 665 q 442 725 365 725 q 533 715 492 725 q 608 686 574 704 q 672 644 643 668 q 725 594 700 621 l 676 544 q 575 626 631 592 q 440 661 519 661 q 327 638 379 661 q 237 572 275 614 q 176 475 199 531 q 154 356 154 419 q 177 234 154 290 q 240 136 200 178 q 332 71 279 94 q 446 47 385 47 q 580 81 521 47 q 683 165 639 115 l 731 124 q 614 26 678 65 q 458 -17 550 -12 l 365 -206 l 289 -169 l 394 -14 "},"é":{"ha":811,"x_min":81,"x_max":742,"o":"m 153 326 q 182 208 157 260 q 244 121 207 157 q 330 66 282 85 q 431 47 378 47 q 572 79 514 47 q 674 158 629 111 l 721 117 q 598 21 667 58 q 428 -17 529 -17 q 295 10 358 -17 q 184 85 232 36 q 108 201 136 133 q 81 353 81 269 l 81 356 q 106 499 81 432 q 177 617 132 567 q 283 696 222 667 q 417 725 344 725 q 551 697 492 725 q 653 618 611 668 q 719 501 696 568 q 742 354 742 433 l 742 351 q 742 339 742 344 q 740 326 742 335 l 153 326 m 153 388 l 668 388 q 647 491 664 442 q 598 578 629 540 q 521 640 567 617 q 414 663 475 663 q 315 642 361 663 q 235 584 269 621 q 179 497 201 547 q 153 388 157 446 m 415 826 l 357 826 l 479 1011 l 564 969 l 415 826 "},"è":{"ha":811,"x_min":81,"x_max":742,"o":"m 153 326 q 182 208 157 260 q 244 121 207 157 q 330 66 282 85 q 431 47 378 47 q 572 79 514 47 q 674 158 629 111 l 721 117 q 598 21 667 58 q 428 -17 529 -17 q 295 10 358 -17 q 184 85 232 36 q 108 201 136 133 q 81 353 81 269 l 81 356 q 106 499 81 432 q 177 617 132 567 q 283 696 222 667 q 417 725 344 725 q 551 697 492 725 q 653 618 611 668 q 719 501 696 568 q 742 354 742 433 l 742 351 q 742 339 742 344 q 740 326 742 335 l 153 326 m 153 388 l 668 388 q 647 491 664 442 q 598 578 629 540 q 521 640 567 617 q 414 663 475 663 q 315 642 361 663 q 235 584 269 621 q 179 497 201 547 q 153 388 157 446 m 397 826 l 249 969 l 333 1011 l 456 826 l 397 826 "},"ê":{"ha":811,"x_min":81,"x_max":742,"o":"m 153 326 q 182 208 157 260 q 244 121 207 157 q 330 66 282 85 q 431 47 378 47 q 572 79 514 47 q 674 158 629 111 l 721 117 q 598 21 667 58 q 428 -17 529 -17 q 295 10 358 -17 q 184 85 232 36 q 108 201 136 133 q 81 353 81 269 l 81 356 q 106 499 81 432 q 177 617 132 567 q 283 696 222 667 q 417 725 344 725 q 551 697 492 725 q 653 618 611 668 q 719 501 696 568 q 742 354 742 433 l 742 351 q 742 339 742 344 q 740 326 742 335 l 153 326 m 153 388 l 668 388 q 647 491 664 442 q 598 578 629 540 q 521 640 567 617 q 414 663 475 663 q 315 642 361 663 q 235 584 269 621 q 179 497 201 547 q 153 388 157 446 m 411 921 l 308 826 l 246 826 l 385 996 l 440 996 l 579 826 l 514 826 l 411 921 "},"ë":{"ha":811,"x_min":81,"x_max":742,"o":"m 153 326 q 182 208 157 260 q 244 121 207 157 q 330 66 282 85 q 431 47 378 47 q 572 79 514 47 q 674 158 629 111 l 721 117 q 598 21 667 58 q 428 -17 529 -17 q 295 10 358 -17 q 184 85 232 36 q 108 201 136 133 q 81 353 81 269 l 81 356 q 106 499 81 432 q 177 617 132 567 q 283 696 222 667 q 417 725 344 725 q 551 697 492 725 q 653 618 611 668 q 719 501 696 568 q 742 354 742 433 l 742 351 q 742 339 742 344 q 740 326 742 335 l 153 326 m 153 388 l 668 388 q 647 491 664 442 q 598 578 629 540 q 521 640 567 617 q 414 663 475 663 q 315 642 361 663 q 235 584 269 621 q 179 497 201 547 q 153 388 157 446 m 574 826 l 478 826 l 478 938 l 574 938 l 574 826 m 347 826 l 251 826 l 251 938 l 347 938 l 347 826 "},"í":{"ha":346,"x_min":139,"x_max":354,"o":"m 207 0 l 139 0 l 139 708 l 207 708 l 207 0 m 206 826 l 147 826 l 269 1011 l 354 969 l 206 826 "},"ì":{"ha":346,"x_min":139,"x_max":347,"o":"m 207 0 l 139 0 l 139 708 l 207 708 l 207 0 m 289 826 l 140 969 l 225 1011 l 347 826 l 289 826 "},"î":{"ha":346,"x_min":139,"x_max":474,"o":"m 207 0 l 139 0 l 139 708 l 207 708 l 207 0 m 306 921 l 203 826 l 140 826 l 279 996 l 335 996 l 474 826 l 408 826 l 306 921 "},"ï":{"ha":346,"x_min":139,"x_max":463,"o":"m 207 0 l 139 0 l 139 708 l 207 708 l 207 0 m 463 826 l 367 826 l 367 938 l 463 938 l 463 826 m 236 826 l 140 826 l 140 938 l 236 938 l 236 826 "},"ñ":{"ha":851,"x_min":129,"x_max":736,"o":"m 736 0 l 668 0 l 668 421 q 610 597 668 531 q 443 663 551 663 q 346 644 390 663 q 268 592 301 625 q 216 512 235 558 q 197 410 197 465 l 197 0 l 129 0 l 129 708 l 197 708 l 197 576 q 294 682 233 639 q 453 725 356 725 q 572 703 519 725 q 662 643 625 682 q 717 551 699 604 q 736 433 736 497 l 736 0 m 638 956 q 590 853 618 881 q 521 826 563 826 q 478 835 501 826 q 430 855 454 844 q 383 874 406 865 q 343 883 361 883 q 303 869 318 883 q 274 814 289 854 l 226 826 q 274 928 246 901 q 343 956 301 956 q 386 947 363 956 q 434 927 410 938 q 481 908 458 917 q 521 899 503 899 q 560 913 546 899 q 590 968 575 928 l 638 956 "},"ó":{"ha":889,"x_min":81,"x_max":808,"o":"m 808 354 q 781 213 808 279 q 705 94 754 146 q 589 13 656 43 q 443 -17 522 -17 q 298 13 364 -17 q 183 93 232 43 q 108 210 135 143 q 81 351 81 276 l 81 354 q 108 496 81 429 q 184 614 135 563 q 300 695 233 665 q 446 725 367 725 q 591 695 525 725 q 706 615 657 665 q 781 499 754 565 q 808 357 808 432 l 808 354 m 735 351 l 735 354 q 713 474 735 418 q 651 572 690 531 q 558 638 611 614 q 443 661 504 661 q 327 637 381 661 q 235 572 274 613 q 176 475 197 531 q 154 357 154 419 l 154 354 q 176 234 154 290 q 238 136 199 178 q 331 71 278 94 q 446 47 385 47 q 562 72 508 47 q 653 137 615 96 q 713 233 692 178 q 735 351 735 289 m 475 826 l 417 826 l 539 1011 l 624 969 l 475 826 "},"ò":{"ha":889,"x_min":81,"x_max":808,"o":"m 808 354 q 781 213 808 279 q 705 94 754 146 q 589 13 656 43 q 443 -17 522 -17 q 298 13 364 -17 q 183 93 232 43 q 108 210 135 143 q 81 351 81 276 l 81 354 q 108 496 81 429 q 184 614 135 563 q 300 695 233 665 q 446 725 367 725 q 591 695 525 725 q 706 615 657 665 q 781 499 754 565 q 808 357 808 432 l 808 354 m 735 351 l 735 354 q 713 474 735 418 q 651 572 690 531 q 558 638 611 614 q 443 661 504 661 q 327 637 381 661 q 235 572 274 613 q 176 475 197 531 q 154 357 154 419 l 154 354 q 176 234 154 290 q 238 136 199 178 q 331 71 278 94 q 446 47 385 47 q 562 72 508 47 q 653 137 615 96 q 713 233 692 178 q 735 351 735 289 m 414 826 l 265 969 l 350 1011 l 472 826 l 414 826 "},"ô":{"ha":889,"x_min":81,"x_max":808,"o":"m 808 354 q 781 213 808 279 q 705 94 754 146 q 589 13 656 43 q 443 -17 522 -17 q 298 13 364 -17 q 183 93 232 43 q 108 210 135 143 q 81 351 81 276 l 81 354 q 108 496 81 429 q 184 614 135 563 q 300 695 233 665 q 446 725 367 725 q 591 695 525 725 q 706 615 657 665 q 781 499 754 565 q 808 357 808 432 l 808 354 m 735 351 l 735 354 q 713 474 735 418 q 651 572 690 531 q 558 638 611 614 q 443 661 504 661 q 327 637 381 661 q 235 572 274 613 q 176 475 197 531 q 154 357 154 419 l 154 354 q 176 234 154 290 q 238 136 199 178 q 331 71 278 94 q 446 47 385 47 q 562 72 508 47 q 653 137 615 96 q 713 233 692 178 q 735 351 735 289 m 443 921 l 340 826 l 278 826 l 417 996 l 472 996 l 611 826 l 546 826 l 443 921 "},"ö":{"ha":889,"x_min":81,"x_max":808,"o":"m 808 354 q 781 213 808 279 q 705 94 754 146 q 589 13 656 43 q 443 -17 522 -17 q 298 13 364 -17 q 183 93 232 43 q 108 210 135 143 q 81 351 81 276 l 81 354 q 108 496 81 429 q 184 614 135 563 q 300 695 233 665 q 446 725 367 725 q 591 695 525 725 q 706 615 657 665 q 781 499 754 565 q 808 357 808 432 l 808 354 m 735 351 l 735 354 q 713 474 735 418 q 651 572 690 531 q 558 638 611 614 q 443 661 504 661 q 327 637 381 661 q 235 572 274 613 q 176 475 197 531 q 154 357 154 419 l 154 354 q 176 234 154 290 q 238 136 199 178 q 331 71 278 94 q 446 47 385 47 q 562 72 508 47 q 653 137 615 96 q 713 233 692 178 q 735 351 735 289 m 606 826 l 510 826 l 510 938 l 606 938 l 606 826 m 379 826 l 283 826 l 283 938 l 379 938 l 379 826 "},"õ":{"ha":889,"x_min":81,"x_max":808,"o":"m 808 354 q 781 213 808 279 q 705 94 754 146 q 589 13 656 43 q 443 -17 522 -17 q 298 13 364 -17 q 183 93 232 43 q 108 210 135 143 q 81 351 81 276 l 81 354 q 108 496 81 429 q 184 614 135 563 q 300 695 233 665 q 446 725 367 725 q 591 695 525 725 q 706 615 657 665 q 781 499 754 565 q 808 357 808 432 l 808 354 m 735 351 l 735 354 q 713 474 735 418 q 651 572 690 531 q 558 638 611 614 q 443 661 504 661 q 327 637 381 661 q 235 572 274 613 q 176 475 197 531 q 154 357 154 419 l 154 354 q 176 234 154 290 q 238 136 199 178 q 331 71 278 94 q 446 47 385 47 q 562 72 508 47 q 653 137 615 96 q 713 233 692 178 q 735 351 735 289 m 650 956 q 603 853 631 881 q 533 826 575 826 q 490 835 514 826 q 442 855 467 844 q 396 874 418 865 q 356 883 374 883 q 316 869 331 883 q 286 814 301 854 l 239 826 q 286 928 258 901 q 356 956 314 956 q 399 947 375 956 q 447 927 422 938 q 493 908 471 917 q 533 899 515 899 q 573 913 558 899 q 603 968 588 928 l 650 956 "},"ú":{"ha":851,"x_min":115,"x_max":722,"o":"m 722 0 l 654 0 l 654 132 q 557 26 618 69 q 399 -17 496 -17 q 279 5 332 -17 q 190 65 226 26 q 134 158 153 104 q 115 275 115 211 l 115 708 l 183 708 l 183 288 q 242 112 183 178 q 408 46 300 46 q 505 65 460 46 q 583 117 550 83 q 635 197 617 150 q 654 299 654 243 l 654 708 l 722 708 l 722 0 m 443 821 l 385 821 l 507 1006 l 592 964 l 443 821 "},"ù":{"ha":851,"x_min":115,"x_max":722,"o":"m 722 0 l 654 0 l 654 132 q 557 26 618 69 q 399 -17 496 -17 q 279 5 332 -17 q 190 65 226 26 q 134 158 153 104 q 115 275 115 211 l 115 708 l 183 708 l 183 288 q 242 112 183 178 q 408 46 300 46 q 505 65 460 46 q 583 117 550 83 q 635 197 617 150 q 654 299 654 243 l 654 708 l 722 708 l 722 0 m 401 821 l 253 964 l 338 1006 l 460 821 l 401 821 "},"û":{"ha":851,"x_min":115,"x_max":722,"o":"m 722 0 l 654 0 l 654 132 q 557 26 618 69 q 399 -17 496 -17 q 279 5 332 -17 q 190 65 226 26 q 134 158 153 104 q 115 275 115 211 l 115 708 l 183 708 l 183 288 q 242 112 183 178 q 408 46 300 46 q 505 65 460 46 q 583 117 550 83 q 635 197 617 150 q 654 299 654 243 l 654 708 l 722 708 l 722 0 m 426 921 l 324 826 l 261 826 l 400 996 l 456 996 l 594 826 l 529 826 l 426 921 "},"ü":{"ha":851,"x_min":115,"x_max":722,"o":"m 722 0 l 654 0 l 654 132 q 557 26 618 69 q 399 -17 496 -17 q 279 5 332 -17 q 190 65 226 26 q 134 158 153 104 q 115 275 115 211 l 115 708 l 183 708 l 183 288 q 242 112 183 178 q 408 46 300 46 q 505 65 460 46 q 583 117 550 83 q 635 197 617 150 q 654 299 654 243 l 654 708 l 722 708 l 722 0 m 589 826 l 493 826 l 493 938 l 589 938 l 589 826 m 363 826 l 267 826 l 267 938 l 363 938 l 363 826 "},"†":{"ha":569,"x_min":88,"x_max":482,"o":"m 308 728 l 315 331 l 254 331 l 261 728 l 88 718 l 88 781 l 260 771 l 250 972 l 319 972 l 310 771 l 482 781 l 482 718 l 308 728 "},"°":{"ha":625,"x_min":103,"x_max":522,"o":"m 522 776 q 505 698 522 735 q 458 633 488 661 q 392 589 429 606 q 313 572 354 572 q 233 589 271 572 q 167 633 196 606 q 120 698 138 661 q 103 776 103 735 q 120 855 103 818 q 167 919 138 892 q 233 964 196 947 q 313 981 271 981 q 392 964 354 981 q 458 919 429 947 q 505 855 488 892 q 522 776 522 818 m 453 776 q 442 830 453 804 q 413 876 432 856 q 369 908 394 896 q 313 919 343 919 q 256 908 282 919 q 212 876 231 896 q 183 830 193 856 q 172 776 172 804 q 183 722 172 749 q 212 676 193 696 q 256 645 231 657 q 313 633 282 633 q 369 645 343 633 q 413 676 394 657 q 442 722 432 696 q 453 776 453 749 "},"¢":{"ha":807,"x_min":86,"x_max":736,"o":"m 736 263 q 613 162 682 201 q 447 122 544 122 q 393 126 419 122 l 367 -8 l 297 -8 l 328 143 q 229 196 274 161 q 153 276 185 231 q 103 377 121 322 q 86 492 86 432 q 114 634 86 567 q 190 753 142 701 q 305 834 239 804 q 447 864 371 864 l 468 864 l 490 981 l 560 981 l 535 854 q 646 807 600 840 q 731 733 692 774 l 682 683 q 608 749 646 719 q 518 792 569 778 l 403 190 q 451 186 425 186 q 585 220 526 186 q 689 304 644 254 l 736 263 m 458 800 l 446 800 q 333 776 385 800 q 242 711 281 753 q 182 614 204 669 q 160 494 160 558 q 211 318 160 394 q 344 207 263 242 l 458 800 "},"£":{"ha":894,"x_min":97,"x_max":807,"o":"m 217 490 l 217 654 q 237 788 217 726 q 296 893 257 849 q 390 962 335 938 q 515 986 444 986 q 613 975 569 986 q 691 944 656 964 q 755 897 726 924 q 807 839 783 869 l 751 796 q 707 845 731 822 q 655 885 683 868 q 592 911 626 901 q 514 921 557 921 q 346 849 404 921 q 288 656 288 778 l 288 490 l 701 490 l 701 424 l 288 424 l 288 65 l 807 65 l 807 0 l 97 0 l 97 35 l 217 63 l 217 424 l 97 424 l 97 490 l 217 490 "},"§":{"ha":878,"x_min":90,"x_max":788,"o":"m 788 467 q 732 362 788 404 q 582 308 676 319 q 669 247 636 285 q 701 161 701 210 q 635 34 701 82 q 457 -14 568 -14 q 282 23 364 -14 q 142 118 200 60 l 194 168 q 312 87 243 119 q 464 54 381 54 q 586 85 547 54 q 625 163 625 117 q 612 205 625 185 q 569 242 599 225 q 490 277 539 260 q 371 311 442 294 q 240 349 293 329 q 153 392 186 369 q 105 443 119 415 q 90 506 90 471 q 146 610 90 568 q 296 664 201 653 q 209 725 242 688 q 176 811 176 763 q 243 938 176 890 q 421 986 310 986 q 596 949 514 986 q 736 854 678 913 l 683 804 q 566 885 635 853 q 414 918 497 918 q 292 887 331 918 q 253 810 253 856 q 266 767 253 786 q 309 730 279 747 q 388 695 339 713 q 507 661 436 678 q 638 622 585 642 q 725 580 692 603 q 773 529 758 557 q 788 467 788 501 m 715 461 q 706 499 715 481 q 672 533 696 517 q 605 566 647 550 q 497 599 563 582 q 408 616 446 611 q 342 621 371 621 q 211 588 260 621 q 163 511 163 554 q 172 474 163 492 q 206 439 182 456 q 273 406 231 422 q 381 374 315 390 q 469 356 431 361 q 536 351 507 351 q 667 385 618 351 q 715 461 715 418 "},"•":{"ha":653,"x_min":154,"x_max":499,"o":"m 499 489 q 485 422 499 453 q 448 367 471 390 q 393 331 425 344 q 326 317 361 317 q 259 331 290 317 q 205 367 228 344 q 168 422 182 390 q 154 489 154 453 q 168 556 154 524 q 205 610 182 588 q 259 647 228 633 q 326 661 290 661 q 393 647 361 661 q 448 610 425 633 q 485 556 471 588 q 499 489 499 524 "},"¶":{"ha":667,"x_min":74,"x_max":536,"o":"m 433 972 l 536 972 l 536 0 l 463 0 l 463 385 l 454 385 q 304 404 374 385 q 183 461 235 424 q 103 553 132 499 q 74 679 74 608 q 100 802 74 747 q 174 894 126 857 q 288 952 222 932 q 433 972 354 972 "},"ß":{"ha":861,"x_min":129,"x_max":774,"o":"m 711 779 q 692 685 711 728 q 643 610 674 643 q 573 552 613 576 q 493 514 533 528 q 598 485 547 504 q 688 436 649 467 q 750 363 726 406 q 774 264 774 321 q 748 151 774 201 q 674 67 722 101 q 556 15 625 33 q 401 -3 488 -3 l 401 57 q 619 111 539 60 q 700 261 700 163 q 619 408 700 356 q 401 475 539 460 l 401 532 q 496 569 453 547 q 570 622 539 592 q 619 690 601 651 q 638 776 638 728 q 622 850 638 817 q 580 908 607 883 q 515 946 553 932 q 431 960 476 960 q 338 941 381 960 q 263 888 294 922 q 215 805 232 854 q 197 694 197 756 l 197 0 l 129 0 l 129 694 q 151 827 129 767 q 212 931 172 888 q 308 999 251 975 q 435 1024 364 1024 q 548 1005 497 1024 q 635 953 599 986 q 692 875 672 919 q 711 779 711 831 "},"®":{"ha":1153,"x_min":74,"x_max":1079,"o":"m 1079 488 q 1040 293 1079 385 q 933 133 1001 201 q 773 24 865 64 q 575 -17 681 -17 q 378 23 469 -17 q 219 131 286 63 q 113 290 151 199 q 74 485 74 382 q 113 679 74 588 q 219 840 151 771 q 380 949 288 908 q 578 989 472 989 q 775 949 683 989 q 934 842 867 910 q 1040 682 1001 774 q 1079 488 1079 590 m 1038 488 q 1003 667 1038 583 q 906 815 968 751 q 760 914 844 878 q 578 950 676 950 q 394 913 479 950 q 248 813 310 876 q 151 665 186 750 q 115 485 115 581 q 150 305 115 389 q 247 158 185 221 q 392 58 308 94 q 575 22 476 22 q 758 59 674 22 q 905 159 843 96 q 1002 307 967 222 q 1038 488 1038 392 m 799 607 q 760 508 799 544 q 660 460 722 471 l 829 246 l 751 246 l 590 450 l 443 450 l 443 246 l 383 246 l 383 754 l 611 754 q 746 715 693 754 q 799 607 799 675 m 736 604 q 702 673 736 649 q 608 697 668 697 l 443 697 l 443 506 l 601 506 q 698 531 660 506 q 736 604 736 556 "},"©":{"ha":1153,"x_min":74,"x_max":1079,"o":"m 1079 488 q 1040 293 1079 385 q 933 133 1001 201 q 773 24 865 64 q 575 -17 681 -17 q 378 23 469 -17 q 219 131 286 63 q 113 290 151 199 q 74 485 74 382 q 113 679 74 588 q 219 840 151 771 q 380 949 288 908 q 578 989 472 989 q 775 949 683 989 q 934 842 867 910 q 1040 682 1001 774 q 1079 488 1079 590 m 1038 488 q 1003 667 1038 583 q 906 815 968 751 q 760 914 844 878 q 578 950 676 950 q 394 913 479 950 q 248 813 310 876 q 151 665 186 750 q 115 485 115 581 q 150 305 115 389 q 247 158 185 221 q 392 58 308 94 q 575 22 476 22 q 758 59 674 22 q 905 159 843 96 q 1002 307 967 222 q 1038 488 1038 392 m 782 319 q 696 255 742 279 q 582 231 650 231 q 482 251 528 231 q 402 308 436 272 q 349 391 368 343 q 329 493 329 439 q 349 595 329 547 q 402 679 368 643 q 483 736 436 715 q 583 757 529 757 q 696 733 651 757 q 779 672 740 708 l 738 629 q 669 680 707 658 q 582 701 631 701 q 505 685 540 701 q 444 640 469 668 q 404 575 418 613 q 390 494 390 538 q 406 414 390 451 q 447 348 421 376 q 508 303 472 319 q 583 286 543 286 q 671 305 635 286 q 743 358 707 324 l 782 319 "},"™":{"ha":958,"x_min":36,"x_max":897,"o":"m 849 886 l 683 639 l 676 639 l 511 886 l 511 544 l 463 544 l 463 972 l 514 972 l 681 718 l 847 972 l 897 972 l 897 544 l 849 544 l 849 886 m 225 925 l 225 544 l 176 544 l 176 925 l 36 925 l 36 972 l 365 972 l 365 925 l 225 925 "},"´":{"ha":694,"x_min":269,"x_max":476,"o":"m 328 826 l 269 826 l 392 1011 l 476 969 l 328 826 "},"¨":{"ha":694,"x_min":186,"x_max":508,"o":"m 508 826 l 413 826 l 413 938 l 508 938 l 508 826 m 282 826 l 186 826 l 186 938 l 282 938 l 282 826 "},"Æ":{"ha":1451,"x_min":28,"x_max":1364,"o":"m 269 272 l 106 0 l 28 0 l 617 972 l 1357 972 l 1357 906 l 758 906 l 758 524 l 1294 524 l 1294 457 l 758 457 l 758 67 l 1364 67 l 1364 0 l 686 0 l 686 272 l 269 272 m 650 907 l 308 338 l 686 338 l 686 907 l 650 907 "},"Ø":{"ha":1181,"x_min":90,"x_max":1090,"o":"m 1079 488 q 1044 297 1079 388 q 944 135 1008 206 q 790 24 881 65 q 589 -17 699 -17 q 414 14 493 -17 q 272 99 335 44 l 174 -7 l 90 -7 l 229 140 q 134 299 167 210 q 101 485 101 388 q 137 676 101 585 q 236 837 172 767 q 390 948 300 907 q 592 989 481 989 q 767 958 688 989 q 908 874 846 928 l 1007 979 l 1090 979 l 951 831 q 1047 674 1014 763 q 1079 488 1079 585 m 863 821 q 740 897 810 869 q 589 925 671 925 q 422 891 499 925 q 291 797 346 857 q 206 658 236 738 q 175 488 175 579 q 202 328 175 403 q 278 193 229 253 l 863 821 m 1006 485 q 978 644 1006 569 q 903 779 951 719 l 318 151 q 440 75 371 103 q 592 47 510 47 q 758 81 682 47 q 890 175 835 115 q 975 314 944 235 q 1006 485 1006 393 "},"±":{"ha":833,"x_min":63,"x_max":746,"o":"m 746 257 q 722 150 746 200 q 654 63 697 100 q 551 5 611 26 q 421 -17 492 -17 q 212 34 303 -17 q 63 163 121 85 l 121 206 q 250 91 175 133 q 424 49 325 49 q 522 63 476 49 q 600 105 567 78 q 652 170 633 132 q 671 256 671 208 q 596 405 671 351 q 383 458 521 458 l 286 458 l 286 522 l 385 522 q 488 536 440 522 q 569 576 535 550 q 624 640 604 601 q 644 726 644 678 q 628 806 644 769 q 581 868 611 842 q 507 909 550 894 q 411 924 464 924 q 258 885 322 924 q 140 775 193 847 l 85 808 q 221 940 140 890 q 414 989 301 989 q 536 969 481 989 q 633 915 592 950 q 697 833 674 881 q 719 729 719 785 q 703 641 719 679 q 661 574 688 603 q 601 527 635 546 q 535 497 568 508 q 618 463 579 485 q 685 413 657 442 q 730 344 714 383 q 746 257 746 306 "},"¥":{"ha":953,"x_min":44,"x_max":908,"o":"m 511 372 l 511 236 l 807 236 l 807 174 l 511 174 l 511 0 l 442 0 l 442 174 l 146 174 l 146 236 l 442 236 l 442 372 l 146 372 l 146 435 l 417 435 l 44 972 l 132 972 l 478 454 l 825 972 l 908 972 l 535 435 l 807 435 l 807 372 l 511 372 "},"µ":{"ha":1181,"x_min":101,"x_max":1128,"o":"m 1079 488 q 1030 263 1079 368 q 892 88 981 158 l 1128 -135 l 1128 -140 l 1024 -140 l 826 42 q 715 -1 774 14 q 589 -17 656 -17 q 388 24 478 -17 q 235 134 299 65 q 136 294 171 203 q 101 485 101 385 q 137 676 101 585 q 236 837 172 767 q 390 948 300 907 q 592 989 481 989 q 792 948 701 989 q 946 838 882 907 q 1044 678 1010 769 q 1079 488 1079 588 m 1004 485 q 973 655 1004 575 q 887 794 942 735 q 756 889 832 854 q 589 924 679 924 q 423 890 499 924 q 292 797 347 856 q 207 658 238 738 q 176 488 176 578 q 208 317 176 397 q 294 178 239 238 q 425 83 349 118 q 592 49 501 49 q 758 83 682 49 q 888 176 833 117 q 974 315 943 235 q 1004 485 1004 394 "},"π":{"ha":1153,"x_min":74,"x_max":1079,"o":"m 1079 488 q 1040 293 1079 385 q 933 133 1001 201 q 773 24 865 64 q 575 -17 681 -17 q 378 23 469 -17 q 219 131 286 63 q 113 290 151 199 q 74 485 74 382 q 113 679 74 588 q 219 840 151 771 q 380 949 288 908 q 578 989 472 989 q 775 949 683 989 q 934 842 867 910 q 1040 682 1001 774 q 1079 488 1079 590 m 1038 488 q 1003 667 1038 583 q 906 815 968 751 q 760 914 844 878 q 578 950 676 950 q 394 913 479 950 q 248 813 310 876 q 151 665 186 750 q 115 485 115 581 q 150 305 115 389 q 247 158 185 221 q 392 58 308 94 q 575 22 476 22 q 758 59 674 22 q 905 159 843 96 q 1002 307 967 222 q 1038 488 1038 392 m 806 590 q 788 515 806 547 q 742 463 771 483 q 676 431 714 442 q 597 421 639 421 l 472 421 l 472 243 l 411 243 l 411 751 l 607 751 q 751 710 697 751 q 806 590 806 669 m 743 588 q 706 669 743 643 q 603 694 668 694 l 472 694 l 472 478 l 599 478 q 704 506 665 478 q 743 588 743 535 "},"ª":{"ha":542,"x_min":86,"x_max":436,"o":"m 429 579 l 378 579 l 378 636 q 320 588 354 606 q 242 571 286 571 q 187 578 214 571 q 138 602 160 586 q 103 642 117 618 q 90 697 90 665 q 138 794 90 760 q 263 828 185 828 q 327 824 300 828 q 378 813 354 819 l 378 819 q 347 899 378 872 q 263 926 315 926 q 201 917 229 926 q 140 893 172 908 l 122 940 q 192 967 158 957 q 265 976 225 976 q 385 938 342 976 q 429 821 429 899 l 429 579 m 436 407 l 86 407 l 86 463 l 436 463 l 436 407 m 378 728 l 378 765 q 326 776 354 772 q 260 781 299 781 q 175 758 204 781 q 146 700 146 736 q 175 641 146 661 q 244 621 204 621 q 295 628 271 621 q 338 650 319 636 q 367 684 356 664 q 378 728 378 704 "},"º":{"ha":542,"x_min":71,"x_max":471,"o":"m 471 776 q 456 697 471 735 q 414 632 440 660 q 350 588 388 604 q 269 571 313 571 q 190 587 226 571 q 126 631 153 603 q 85 695 100 658 q 71 774 71 732 q 86 853 71 815 q 128 918 101 890 q 191 963 154 946 q 272 979 228 979 q 352 963 315 979 q 415 919 389 947 q 456 855 442 892 q 471 776 471 818 m 471 407 l 71 407 l 71 463 l 471 463 l 471 407 m 411 774 q 371 881 411 838 q 269 925 331 925 q 169 882 207 925 q 131 776 131 839 q 171 669 131 713 q 272 625 211 625 q 373 668 335 625 q 411 774 411 711 "},"æ":{"ha":1325,"x_min":71,"x_max":1256,"o":"m 656 139 q 522 29 600 75 q 338 -17 443 -17 q 241 -3 289 -17 q 156 40 193 11 q 94 110 118 68 q 71 207 71 151 q 93 306 71 263 q 156 378 115 349 q 251 424 196 408 q 374 439 307 439 q 494 431 443 439 q 596 408 544 422 l 596 439 q 538 601 596 547 q 372 656 479 656 q 259 640 310 656 q 160 599 208 624 l 135 658 q 250 703 194 686 q 376 719 306 719 q 551 675 482 719 q 644 542 621 631 q 761 675 686 625 q 931 725 836 725 q 1065 697 1006 725 q 1167 618 1125 668 q 1233 500 1210 568 q 1256 353 1256 432 q 1256 340 1256 347 q 1254 326 1256 335 l 667 326 q 696 208 671 260 q 759 121 721 157 q 845 66 797 85 q 944 47 893 47 q 1085 79 1028 47 q 1188 158 1143 111 l 1235 117 q 1112 21 1181 58 q 942 -17 1043 -17 q 778 24 854 -17 q 656 139 703 65 m 667 388 l 1182 388 q 1160 491 1178 442 q 1112 578 1143 540 q 1035 640 1081 617 q 928 663 989 663 q 829 642 875 663 q 749 584 783 621 q 693 497 715 547 q 667 388 671 446 m 594 347 q 494 368 550 358 q 369 378 438 378 q 201 332 260 378 q 143 211 143 286 q 159 142 143 172 q 202 90 175 111 q 265 58 229 69 q 342 47 301 47 q 503 90 433 47 q 625 196 574 132 q 603 268 611 231 q 594 347 596 306 "},"ø":{"ha":889,"x_min":60,"x_max":829,"o":"m 808 356 q 781 213 808 281 q 705 94 754 146 q 589 13 656 43 q 443 -17 522 -17 q 316 6 375 -17 q 211 67 257 28 l 139 -7 l 60 -7 l 169 107 q 104 219 128 157 q 81 353 81 282 q 108 495 81 428 q 184 614 135 563 q 300 695 233 665 q 446 725 367 725 q 573 703 514 725 q 678 640 632 681 l 750 718 l 829 718 l 718 601 q 785 490 761 553 q 808 356 808 426 m 635 589 q 548 643 596 624 q 443 663 500 663 q 326 639 379 663 q 234 574 272 615 q 174 476 196 532 q 153 356 153 419 q 169 247 153 297 q 218 157 186 197 l 635 589 m 736 353 q 719 461 736 411 q 669 551 701 511 l 254 118 q 342 65 293 83 q 446 46 390 46 q 563 69 510 46 q 654 135 615 93 q 715 232 693 176 q 736 353 736 288 "},"¿":{"ha":742,"x_min":72,"x_max":694,"o":"m 356 972 l 447 972 l 447 854 l 356 854 l 356 972 m 435 486 q 221 424 296 483 q 146 263 146 364 q 162 181 146 219 q 208 114 178 143 q 281 68 238 85 q 376 51 324 51 q 525 90 460 51 q 644 194 590 128 l 694 153 q 632 85 665 115 q 560 33 599 56 q 475 -1 521 11 q 374 -12 429 -12 q 249 9 304 -12 q 154 67 193 31 q 94 153 115 104 q 72 260 72 203 q 96 375 72 325 q 159 460 119 425 q 252 517 199 496 q 367 544 306 538 l 379 718 l 424 718 l 442 493 l 435 486 "},"¡":{"ha":350,"x_min":129,"x_max":221,"o":"m 129 972 l 221 972 l 221 854 l 129 854 l 129 972 m 215 0 l 135 0 l 135 97 l 156 718 l 194 718 l 215 97 l 215 0 "},"√":{"ha":1351,"x_min":68,"x_max":1213,"o":"m 742 708 l 989 708 l 989 646 l 742 646 l 742 0 l 674 0 l 674 646 l 571 646 l 571 708 l 674 708 l 674 778 q 729 956 674 893 q 885 1018 785 1018 q 942 1014 917 1018 q 990 1001 967 1010 l 990 938 q 936 951 960 947 q 885 956 913 956 q 742 776 742 956 l 742 708 m 239 708 l 486 708 l 486 646 l 239 646 l 239 0 l 171 0 l 171 646 l 68 646 l 68 708 l 171 708 l 171 778 q 226 956 171 893 q 382 1018 282 1018 q 439 1014 414 1018 q 488 1001 464 1010 l 488 938 q 433 951 457 947 q 382 956 410 956 q 239 776 239 956 l 239 708 m 1213 0 l 1144 0 l 1144 1014 l 1213 1014 l 1213 0 "},"ƒ":{"ha":703,"x_min":57,"x_max":653,"o":"m 653 904 q 603 915 628 911 q 556 918 578 918 q 467 887 497 918 q 424 781 438 856 l 389 596 l 604 596 l 604 533 l 378 533 l 308 164 q 248 35 292 76 q 125 -7 204 -7 q 87 -6 103 -7 q 57 -1 71 -4 l 57 60 q 121 54 85 54 q 235 168 214 54 l 303 533 l 151 533 l 151 596 l 314 596 l 350 785 q 417 934 369 889 q 549 979 465 979 q 605 976 582 979 q 653 965 628 972 l 653 904 "},"≈":{"ha":1351,"x_min":68,"x_max":1221,"o":"m 1221 893 l 1136 893 l 1136 986 l 1221 986 l 1221 893 m 742 708 l 989 708 l 989 646 l 742 646 l 742 0 l 674 0 l 674 646 l 571 646 l 571 708 l 674 708 l 674 778 q 729 956 674 893 q 885 1018 785 1018 q 942 1014 917 1018 q 990 1001 967 1010 l 990 938 q 936 951 960 947 q 885 956 913 956 q 742 776 742 956 l 742 708 m 239 708 l 486 708 l 486 646 l 239 646 l 239 0 l 171 0 l 171 646 l 68 646 l 68 708 l 171 708 l 171 778 q 226 956 171 893 q 382 1018 282 1018 q 439 1014 414 1018 q 488 1001 464 1010 l 488 938 q 433 951 457 947 q 382 956 410 956 q 239 776 239 956 l 239 708 m 1213 0 l 1144 0 l 1144 708 l 1213 708 l 1213 0 "},"«":{"ha":715,"x_min":71,"x_max":628,"o":"m 576 650 l 628 617 l 438 356 l 628 92 l 576 58 l 354 349 l 354 360 l 576 650 m 293 650 l 344 617 l 154 356 l 344 92 l 293 58 l 71 349 l 71 360 l 293 650 "},"»":{"ha":715,"x_min":88,"x_max":644,"o":"m 422 58 l 371 92 l 561 353 l 371 617 l 422 650 l 644 360 l 644 349 l 422 58 m 139 58 l 88 92 l 278 353 l 88 617 l 139 650 l 361 360 l 361 349 l 139 58 "},"…":{"ha":944,"x_min":114,"x_max":831,"o":"m 831 0 l 742 0 l 742 115 l 831 115 l 831 0 m 517 0 l 428 0 l 428 115 l 517 115 l 517 0 m 203 0 l 114 0 l 114 115 l 203 115 l 203 0 "}," ":{"ha":417,"x_min":0,"x_max":0,"o":""},"À":{"ha":1097,"x_min":61,"x_max":1036,"o":"m 1036 0 l 957 0 l 833 272 l 260 272 l 136 0 l 61 0 l 514 979 l 583 979 l 1036 0 m 803 338 l 547 900 l 290 338 l 803 338 m 514 1063 l 365 1206 l 450 1247 l 572 1063 l 514 1063 "},"Ã":{"ha":1097,"x_min":61,"x_max":1036,"o":"m 1036 0 l 957 0 l 833 272 l 260 272 l 136 0 l 61 0 l 514 979 l 583 979 l 1036 0 m 803 338 l 547 900 l 290 338 l 803 338 m 754 1192 q 707 1090 735 1117 q 638 1063 679 1063 q 594 1072 618 1063 q 547 1091 571 1081 q 500 1110 522 1101 q 460 1119 478 1119 q 420 1105 435 1119 q 390 1050 406 1090 l 343 1063 q 390 1165 363 1138 q 460 1192 418 1192 q 503 1183 479 1192 q 551 1163 526 1174 q 597 1144 575 1153 q 638 1135 619 1135 q 677 1149 663 1135 q 707 1204 692 1164 l 754 1192 "},"Õ":{"ha":1181,"x_min":101,"x_max":1081,"o":"m 1079 486 q 1044 295 1079 386 q 944 135 1008 204 q 790 24 881 65 q 589 -17 699 -17 q 388 24 478 -17 q 235 134 299 65 q 136 293 171 203 q 101 483 101 383 l 101 486 q 137 677 101 586 q 236 838 172 768 q 390 948 300 907 q 592 989 481 989 q 792 948 701 989 q 946 838 882 907 q 1044 679 1010 769 q 1079 489 1079 589 q 1079 486 1081 488 m 1004 483 l 1004 486 q 973 656 1004 576 q 887 795 942 736 q 756 889 832 854 q 589 924 679 924 q 423 890 499 924 q 292 797 347 856 q 207 658 238 738 q 176 489 176 579 l 176 486 q 208 316 176 396 q 294 177 239 236 q 425 83 349 118 q 592 49 501 49 q 758 83 682 49 q 888 176 833 117 q 974 314 943 235 q 1004 483 1004 393 m 796 1192 q 749 1090 776 1117 q 679 1063 721 1063 q 636 1072 660 1063 q 588 1091 613 1081 q 542 1110 564 1101 q 501 1119 519 1119 q 462 1105 476 1119 q 432 1050 447 1090 l 385 1063 q 432 1165 404 1138 q 501 1192 460 1192 q 544 1183 521 1192 q 592 1163 568 1174 q 639 1144 617 1153 q 679 1135 661 1135 q 719 1149 704 1135 q 749 1204 733 1164 l 796 1192 "},"Œ":{"ha":1600,"x_min":101,"x_max":1513,"o":"m 1513 0 l 618 0 q 408 37 503 0 q 245 139 314 74 q 139 293 176 204 q 101 485 101 382 q 139 676 101 588 q 245 831 176 765 q 408 935 314 897 q 618 972 503 972 l 1506 972 l 1506 906 l 907 906 l 907 524 l 1443 524 l 1443 457 l 907 457 l 907 67 l 1513 67 l 1513 0 m 835 67 l 835 906 l 618 906 q 435 873 517 906 q 296 784 353 840 q 208 651 239 728 q 176 488 176 575 q 208 324 176 400 q 296 190 239 247 q 435 99 353 132 q 618 67 517 67 l 835 67 "},"œ":{"ha":1465,"x_min":81,"x_max":1396,"o":"m 769 201 q 717 114 749 154 q 642 44 685 74 q 549 -1 600 15 q 442 -17 499 -17 q 298 13 364 -17 q 183 93 232 43 q 108 210 135 143 q 81 353 81 278 q 108 495 81 428 q 185 614 136 563 q 300 695 233 665 q 444 725 367 725 q 551 709 500 725 q 643 664 601 693 q 717 595 685 635 q 769 508 749 556 q 888 665 808 606 q 1072 725 968 725 q 1206 697 1146 725 q 1308 618 1265 668 q 1373 500 1350 568 q 1396 353 1396 432 q 1396 340 1396 347 q 1394 326 1396 335 l 807 326 q 836 208 811 260 q 899 121 861 157 q 985 66 938 85 q 1085 47 1033 47 q 1226 79 1168 47 q 1328 158 1283 111 l 1375 117 q 1253 21 1321 58 q 1085 -17 1185 -17 q 985 -1 1033 -17 q 896 42 938 14 q 822 110 854 69 q 769 201 790 151 m 807 388 l 1322 388 q 1301 491 1318 442 q 1252 578 1283 540 q 1175 640 1221 617 q 1068 663 1129 663 q 969 642 1015 663 q 890 584 924 621 q 833 497 856 547 q 807 388 811 446 m 735 353 q 713 473 735 417 q 651 571 690 529 q 558 637 611 613 q 443 661 504 661 q 327 638 381 661 q 235 572 274 614 q 176 475 197 531 q 154 356 154 419 q 176 234 154 290 q 238 136 199 178 q 331 71 278 94 q 446 47 385 47 q 562 71 508 47 q 653 136 615 94 q 713 233 692 178 q 735 353 735 289 "},"–":{"ha":733,"x_min":97,"x_max":636,"o":"m 636 376 l 97 376 l 97 449 l 636 449 l 636 376 "},"—":{"ha":1247,"x_min":97,"x_max":1150,"o":"m 1150 376 l 97 376 l 97 449 l 1150 449 l 1150 376 "},"“":{"ha":569,"x_min":107,"x_max":489,"o":"m 489 944 q 426 896 444 921 q 411 831 408 871 l 449 831 l 449 713 l 357 713 l 357 815 q 383 918 357 881 q 472 979 410 956 l 489 944 m 239 944 q 176 896 194 921 q 161 831 158 871 l 199 831 l 199 713 l 107 713 l 107 815 q 133 918 107 881 q 222 979 160 956 l 239 944 "},"”":{"ha":569,"x_min":81,"x_max":463,"o":"m 331 740 q 393 789 375 764 q 408 854 411 814 l 371 854 l 371 972 l 463 972 l 463 869 q 436 767 463 804 q 347 706 410 729 l 331 740 m 81 740 q 143 789 125 764 q 158 854 161 814 l 121 854 l 121 972 l 213 972 l 213 869 q 186 767 213 804 q 97 706 160 729 l 81 740 "},"‘":{"ha":319,"x_min":107,"x_max":239,"o":"m 239 944 q 176 896 194 921 q 161 831 158 871 l 199 831 l 199 713 l 107 713 l 107 815 q 133 918 107 881 q 222 979 160 956 l 239 944 "},"’":{"ha":319,"x_min":81,"x_max":213,"o":"m 81 740 q 143 789 125 764 q 158 854 161 814 l 121 854 l 121 972 l 213 972 l 213 869 q 186 767 213 804 q 97 706 160 729 l 81 740 "},"ÿ":{"ha":817,"x_min":54,"x_max":758,"o":"m 758 708 l 451 -25 q 348 -181 404 -136 q 215 -226 292 -226 q 143 -219 175 -226 q 75 -196 111 -211 l 99 -136 q 153 -156 126 -150 q 219 -162 179 -162 q 271 -154 247 -162 q 315 -126 294 -146 q 356 -74 336 -106 q 394 4 375 -42 l 54 708 l 133 708 l 428 75 l 683 708 l 758 708 m 569 826 l 474 826 l 474 938 l 569 938 l 569 826 m 343 826 l 247 826 l 247 938 l 343 938 l 343 826 "},"Ÿ":{"ha":994,"x_min":44,"x_max":950,"o":"m 950 972 l 533 386 l 533 0 l 461 0 l 461 385 l 44 972 l 135 972 l 499 450 l 864 972 l 950 972 m 658 1056 l 563 1056 l 563 1167 l 658 1167 l 658 1056 m 432 1056 l 336 1056 l 336 1167 l 432 1167 l 432 1056 "},"¤":{"ha":1000,"x_min":82,"x_max":921,"o":"m 200 578 l 82 578 l 82 644 l 213 644 q 266 783 231 719 q 350 892 301 846 q 458 963 399 938 q 585 989 518 989 q 695 974 646 989 q 785 933 744 960 q 858 872 825 907 q 918 794 890 836 l 863 757 q 806 828 835 797 q 743 881 776 860 q 671 914 710 903 q 582 925 632 925 q 483 904 529 925 q 397 846 436 883 q 329 757 358 808 q 283 644 300 706 l 678 644 l 678 578 l 271 578 q 266 533 268 556 q 264 488 264 511 q 268 407 264 446 l 678 407 l 678 340 l 281 340 q 327 221 297 275 q 398 128 357 167 q 490 69 439 90 q 599 47 540 47 q 753 97 689 47 q 868 225 817 146 l 921 190 q 860 110 893 147 q 787 44 826 72 q 700 -1 747 15 q 594 -17 653 -17 q 460 9 522 -17 q 347 82 397 35 q 260 195 296 129 q 207 340 225 261 l 82 340 l 82 407 l 197 407 q 193 485 193 444 q 195 531 193 508 q 200 578 197 554 "},"‹":{"ha":432,"x_min":71,"x_max":344,"o":"m 293 650 l 344 617 l 154 356 l 344 92 l 293 58 l 71 349 l 71 360 l 293 650 "},"›":{"ha":432,"x_min":88,"x_max":361,"o":"m 139 58 l 88 92 l 278 353 l 88 617 l 139 650 l 361 360 l 361 349 l 139 58 "},"ﬁ":{"ha":849,"x_min":68,"x_max":718,"o":"m 718 893 l 633 893 l 633 986 l 718 986 l 718 893 m 239 708 l 486 708 l 486 646 l 239 646 l 239 0 l 171 0 l 171 646 l 68 646 l 68 708 l 171 708 l 171 778 q 226 956 171 893 q 382 1018 282 1018 q 439 1014 414 1018 q 488 1001 464 1010 l 488 938 q 433 951 457 947 q 382 956 410 956 q 239 776 239 956 l 239 708 m 710 0 l 642 0 l 642 708 l 710 708 l 710 0 "},"ﬂ":{"ha":849,"x_min":68,"x_max":710,"o":"m 239 708 l 486 708 l 486 646 l 239 646 l 239 0 l 171 0 l 171 646 l 68 646 l 68 708 l 171 708 l 171 778 q 226 956 171 893 q 382 1018 282 1018 q 439 1014 414 1018 q 488 1001 464 1010 l 488 938 q 433 951 457 947 q 382 956 410 956 q 239 776 239 956 l 239 708 m 710 0 l 642 0 l 642 1014 l 710 1014 l 710 0 "},"‡":{"ha":597,"x_min":101,"x_max":496,"o":"m 496 192 l 324 201 l 333 0 l 264 0 l 274 201 l 101 192 l 101 254 l 275 244 l 268 486 l 275 728 l 101 718 l 101 781 l 274 771 l 264 972 l 333 972 l 324 771 l 496 781 l 496 718 l 322 728 l 329 486 l 322 244 l 496 254 l 496 192 "},"·":{"ha":319,"x_min":114,"x_max":206,"o":"m 206 354 l 114 354 l 114 472 l 206 472 l 206 354 "},"‚":{"ha":319,"x_min":74,"x_max":206,"o":"m 74 -114 q 136 -65 118 -90 q 151 0 154 -40 l 114 0 l 114 118 l 206 118 l 206 15 q 179 -87 206 -50 q 90 -149 153 -125 l 74 -114 "},"„":{"ha":569,"x_min":74,"x_max":456,"o":"m 324 -114 q 386 -65 368 -90 q 401 0 404 -40 l 364 0 l 364 118 l 456 118 l 456 15 q 429 -87 456 -50 q 340 -149 403 -125 l 324 -114 m 74 -114 q 136 -65 118 -90 q 151 0 154 -40 l 114 0 l 114 118 l 206 118 l 206 15 q 179 -87 206 -50 q 90 -149 153 -125 l 74 -114 "},"‰":{"ha":1667,"x_min":76,"x_max":1590,"o":"m 504 736 q 489 641 504 686 q 445 562 474 596 q 377 507 417 528 q 289 486 338 486 q 201 506 240 486 q 135 560 163 526 q 92 640 107 594 q 76 733 76 685 q 92 828 76 783 q 135 908 107 874 q 203 963 164 942 q 292 983 243 983 q 378 963 339 983 q 446 909 418 943 q 489 830 474 875 q 504 736 504 785 m 892 972 l 967 972 l 253 0 l 178 0 l 892 972 m 1590 239 q 1575 144 1590 189 q 1531 65 1560 99 q 1463 10 1503 31 q 1375 -11 1424 -11 q 1288 9 1326 -11 q 1221 63 1249 29 q 1178 142 1193 97 q 1163 236 1163 188 q 1178 331 1163 286 q 1222 410 1193 376 q 1290 465 1250 444 q 1378 486 1329 486 q 1465 466 1425 486 q 1532 412 1504 446 q 1575 333 1560 378 q 1590 239 1590 288 m 1068 239 q 1053 144 1068 189 q 1009 65 1038 99 q 941 10 981 31 q 853 -11 901 -11 q 765 9 804 -11 q 699 63 726 29 q 656 142 671 97 q 640 236 640 188 q 656 331 640 286 q 699 410 671 376 q 767 465 728 444 q 856 486 807 486 q 942 466 903 486 q 1010 412 982 446 q 1053 333 1038 378 q 1068 239 1068 288 m 432 733 q 421 810 432 775 q 390 870 410 844 q 344 910 369 896 q 289 924 318 924 q 233 909 258 924 q 188 869 207 894 q 159 810 169 844 q 149 736 149 775 q 160 660 149 694 q 191 599 171 625 q 237 560 211 574 q 292 546 263 546 q 348 560 322 546 q 392 600 374 575 q 422 659 411 625 q 432 733 432 693 m 1518 236 q 1507 313 1518 278 q 1476 373 1496 347 q 1430 413 1456 399 q 1375 426 1404 426 q 1319 412 1344 426 q 1274 372 1293 397 q 1245 313 1256 347 q 1235 239 1235 278 q 1246 163 1235 197 q 1277 102 1257 128 q 1323 63 1297 76 q 1378 49 1349 49 q 1434 63 1408 49 q 1478 103 1460 78 q 1508 162 1497 128 q 1518 236 1518 196 m 996 236 q 985 313 996 278 q 953 373 974 347 q 908 413 933 399 q 853 426 882 426 q 797 412 822 426 q 752 372 771 397 q 723 313 733 347 q 713 239 713 278 q 724 163 713 197 q 755 102 735 128 q 801 63 775 76 q 856 49 826 49 q 912 63 886 49 q 956 103 938 78 q 985 162 975 128 q 996 236 996 196 "},"Â":{"ha":1097,"x_min":61,"x_max":1036,"o":"m 1036 0 l 957 0 l 833 272 l 260 272 l 136 0 l 61 0 l 514 979 l 583 979 l 1036 0 m 803 338 l 547 900 l 290 338 l 803 338 m 547 1150 l 444 1056 l 382 1056 l 521 1225 l 576 1225 l 715 1056 l 650 1056 l 547 1150 "},"Ê":{"ha":931,"x_min":144,"x_max":843,"o":"m 843 0 l 144 0 l 144 972 l 836 972 l 836 906 l 217 906 l 217 524 l 774 524 l 774 457 l 217 457 l 217 67 l 843 67 l 843 0 m 483 1157 l 381 1063 l 318 1063 l 457 1232 l 513 1232 l 651 1063 l 586 1063 l 483 1157 "},"Á":{"ha":1097,"x_min":61,"x_max":1036,"o":"m 1036 0 l 957 0 l 833 272 l 260 272 l 136 0 l 61 0 l 514 979 l 583 979 l 1036 0 m 803 338 l 547 900 l 290 338 l 803 338 m 583 1063 l 525 1063 l 647 1247 l 732 1206 l 583 1063 "},"Ë":{"ha":931,"x_min":144,"x_max":843,"o":"m 843 0 l 144 0 l 144 972 l 836 972 l 836 906 l 217 906 l 217 524 l 774 524 l 774 457 l 217 457 l 217 67 l 843 67 l 843 0 m 646 1063 l 550 1063 l 550 1174 l 646 1174 l 646 1063 m 419 1063 l 324 1063 l 324 1174 l 419 1174 l 419 1063 "},"È":{"ha":931,"x_min":144,"x_max":843,"o":"m 843 0 l 144 0 l 144 972 l 836 972 l 836 906 l 217 906 l 217 524 l 774 524 l 774 457 l 217 457 l 217 67 l 843 67 l 843 0 m 485 1063 l 336 1206 l 421 1247 l 543 1063 l 485 1063 "},"Í":{"ha":381,"x_min":154,"x_max":372,"o":"m 226 0 l 154 0 l 154 972 l 226 972 l 226 0 m 224 1063 l 165 1063 l 288 1247 l 372 1206 l 224 1063 "},"Î":{"ha":381,"x_min":154,"x_max":489,"o":"m 226 0 l 154 0 l 154 972 l 226 972 l 226 0 m 321 1157 l 218 1063 l 156 1063 l 294 1232 l 350 1232 l 489 1063 l 424 1063 l 321 1157 "},"Ï":{"ha":381,"x_min":154,"x_max":478,"o":"m 226 0 l 154 0 l 154 972 l 226 972 l 226 0 m 478 1063 l 382 1063 l 382 1174 l 478 1174 l 478 1063 m 251 1063 l 156 1063 l 156 1174 l 251 1174 l 251 1063 "},"Ì":{"ha":381,"x_min":154,"x_max":363,"o":"m 226 0 l 154 0 l 154 972 l 226 972 l 226 0 m 304 1063 l 156 1206 l 240 1247 l 363 1063 l 304 1063 "},"Ó":{"ha":1181,"x_min":101,"x_max":1081,"o":"m 1079 486 q 1044 295 1079 386 q 944 135 1008 204 q 790 24 881 65 q 589 -17 699 -17 q 388 24 478 -17 q 235 134 299 65 q 136 293 171 203 q 101 483 101 383 l 101 486 q 137 677 101 586 q 236 838 172 768 q 390 948 300 907 q 592 989 481 989 q 792 948 701 989 q 946 838 882 907 q 1044 679 1010 769 q 1079 489 1079 589 q 1079 486 1081 488 m 1004 483 l 1004 486 q 973 656 1004 576 q 887 795 942 736 q 756 889 832 854 q 589 924 679 924 q 423 890 499 924 q 292 797 347 856 q 207 658 238 738 q 176 489 176 579 l 176 486 q 208 316 176 396 q 294 177 239 236 q 425 83 349 118 q 592 49 501 49 q 758 83 682 49 q 888 176 833 117 q 974 314 943 235 q 1004 483 1004 393 m 626 1063 l 568 1063 l 690 1247 l 775 1206 l 626 1063 "},"Ô":{"ha":1181,"x_min":101,"x_max":1081,"o":"m 1079 486 q 1044 295 1079 386 q 944 135 1008 204 q 790 24 881 65 q 589 -17 699 -17 q 388 24 478 -17 q 235 134 299 65 q 136 293 171 203 q 101 483 101 383 l 101 486 q 137 677 101 586 q 236 838 172 768 q 390 948 300 907 q 592 989 481 989 q 792 948 701 989 q 946 838 882 907 q 1044 679 1010 769 q 1079 489 1079 589 q 1079 486 1081 488 m 1004 483 l 1004 486 q 973 656 1004 576 q 887 795 942 736 q 756 889 832 854 q 589 924 679 924 q 423 890 499 924 q 292 797 347 856 q 207 658 238 738 q 176 489 176 579 l 176 486 q 208 316 176 396 q 294 177 239 236 q 425 83 349 118 q 592 49 501 49 q 758 83 682 49 q 888 176 833 117 q 974 314 943 235 q 1004 483 1004 393 m 589 1157 l 486 1063 l 424 1063 l 563 1232 l 618 1232 l 757 1063 l 692 1063 l 589 1157 "},"":{"ha":1343,"x_min":140,"x_max":1206,"o":"m 1206 0 l 140 0 l 140 1042 l 1206 1042 l 1206 0 m 1193 -144 l 1185 -144 l 1181 -117 l 1167 -146 l 1164 -146 l 1150 -117 l 1146 -144 l 1138 -144 l 1146 -97 l 1147 -97 l 1165 -133 l 1183 -97 l 1185 -97 l 1193 -144 m 1119 -121 q 1113 -139 1119 -132 q 1096 -146 1107 -146 q 1078 -139 1085 -146 q 1072 -122 1072 -132 q 1079 -104 1072 -111 q 1097 -97 1086 -97 q 1113 -104 1107 -97 q 1119 -121 1119 -111 m 1053 -133 l 1051 -142 q 1038 -146 1047 -146 q 1013 -122 1013 -146 q 1019 -104 1013 -111 q 1038 -97 1026 -97 q 1053 -101 1046 -97 l 1050 -108 q 1038 -104 1046 -104 q 1026 -109 1031 -104 q 1021 -121 1021 -114 q 1039 -139 1021 -139 q 1053 -133 1044 -139 m 975 -99 l 957 -125 l 957 -144 l 949 -144 l 949 -125 l 929 -99 l 938 -97 l 953 -118 l 965 -99 l 975 -99 m 911 -144 l 903 -144 l 903 -124 l 881 -124 l 881 -144 l 872 -144 l 872 -99 l 881 -99 l 881 -117 l 903 -117 l 903 -99 l 911 -99 l 911 -144 m 850 -114 q 826 -131 850 -131 l 826 -144 l 818 -144 l 818 -99 q 844 -101 838 -96 q 850 -114 850 -107 m 800 -144 l 792 -144 l 786 -133 l 767 -133 l 763 -144 l 754 -144 l 775 -97 l 778 -97 l 800 -144 m 742 -144 l 732 -144 l 721 -129 l 714 -129 l 714 -144 l 706 -144 l 706 -99 q 731 -101 725 -96 q 738 -112 738 -106 q 728 -126 738 -122 l 742 -144 m 682 -140 q 664 -146 674 -146 q 646 -140 653 -146 q 639 -122 639 -133 q 647 -104 639 -111 q 665 -97 654 -97 q 682 -103 674 -97 l 679 -110 q 664 -104 674 -104 q 647 -122 647 -104 q 665 -139 647 -139 q 674 -136 668 -139 l 674 -126 l 661 -126 l 661 -119 l 682 -119 l 682 -140 m 621 -121 q 615 -139 621 -132 q 597 -146 608 -146 q 580 -139 586 -146 q 574 -122 574 -132 q 581 -104 574 -111 q 599 -97 588 -97 q 615 -104 608 -97 q 621 -121 621 -111 m 556 -114 q 532 -131 556 -131 l 532 -144 l 524 -144 l 524 -99 q 549 -101 543 -96 q 556 -114 556 -107 m 506 -99 l 488 -125 l 488 -144 l 479 -144 l 479 -125 l 460 -99 l 468 -97 l 483 -118 l 496 -99 l 506 -99 m 449 -99 l 449 -106 l 432 -106 l 432 -144 l 424 -144 l 424 -106 l 407 -106 l 407 -99 l 449 -99 m 371 -99 l 354 -146 l 353 -146 l 338 -114 l 324 -146 l 322 -146 l 306 -99 l 314 -97 l 324 -129 l 338 -97 l 339 -97 l 353 -129 l 363 -99 l 371 -99 m 293 -99 l 276 -146 l 275 -146 l 260 -114 l 246 -146 l 244 -146 l 228 -99 l 236 -97 l 246 -129 l 260 -97 l 261 -97 l 275 -129 l 285 -99 l 293 -99 m 215 -99 l 199 -146 l 197 -146 l 182 -114 l 168 -146 l 167 -146 l 150 -99 l 158 -97 l 168 -129 l 182 -97 l 183 -97 l 197 -129 l 207 -99 l 215 -99 m 994 -140 q 989 -146 994 -146 q 983 -140 983 -146 q 989 -135 983 -135 q 994 -140 994 -135 m 394 -140 q 389 -146 394 -146 q 383 -140 383 -146 q 389 -135 383 -135 q 394 -140 394 -135 m 776 953 q 776 958 776 953 q 775 969 776 965 q 751 968 772 968 q 726 969 731 968 q 726 959 726 965 q 725 953 725 953 l 728 953 q 731 959 728 953 q 742 965 735 965 q 746 961 746 965 l 746 929 q 742 922 746 922 q 739 922 739 922 l 739 919 l 763 919 l 763 922 q 758 922 763 922 q 756 929 756 922 l 756 961 q 760 965 756 965 q 770 959 767 965 q 774 953 774 953 l 776 953 m 700 919 l 700 922 q 696 922 700 922 q 692 929 692 922 l 692 958 q 696 965 692 965 q 700 965 700 965 l 700 968 l 675 968 l 675 967 l 675 965 q 678 965 675 965 q 682 958 682 965 l 682 946 l 658 946 l 658 958 q 661 965 658 965 q 665 965 665 965 l 665 967 l 665 968 l 642 968 l 642 965 q 644 965 642 965 q 649 958 649 965 l 649 929 q 645 923 649 924 q 642 922 642 922 l 642 919 l 665 919 l 665 922 q 662 923 665 922 q 658 929 658 924 l 658 943 l 682 943 l 682 929 q 678 922 682 922 q 675 922 675 922 l 675 919 l 700 919 m 610 922 q 606 922 610 922 q 603 929 603 922 l 603 958 q 606 965 603 965 q 610 965 610 965 l 610 968 l 569 968 l 567 954 l 569 953 q 572 958 569 953 q 582 964 575 964 l 588 964 q 593 960 593 964 l 593 946 l 588 946 q 580 949 581 946 q 579 953 579 953 l 576 953 l 576 935 l 579 935 q 580 939 579 935 q 588 943 581 943 l 593 943 l 593 928 q 588 924 593 924 l 582 924 q 572 930 575 924 q 568 936 568 936 l 565 935 l 568 919 l 610 919 l 610 922 m 1149 858 l 1149 867 l 197 867 l 197 858 l 1149 858 m 967 750 q 951 787 967 771 q 915 803 935 803 q 894 796 906 803 q 883 772 883 789 q 899 735 883 750 q 935 719 915 719 q 956 726 944 719 q 967 750 967 733 m 818 746 q 799 769 818 763 q 806 782 806 774 q 799 796 806 789 q 776 803 792 803 q 758 788 758 803 q 765 779 758 779 q 771 783 771 779 q 769 788 771 788 q 767 792 767 789 q 776 799 767 799 q 790 782 790 799 q 788 774 790 776 q 765 765 765 776 q 776 757 765 757 q 792 764 785 757 q 800 743 800 757 q 783 724 800 724 q 767 736 767 724 q 771 740 767 740 q 774 739 772 740 q 778 738 775 738 q 783 744 783 738 q 774 751 783 751 q 761 738 761 751 q 783 719 761 719 q 810 727 801 719 q 818 746 818 735 m 410 746 q 390 769 410 763 q 397 782 397 774 q 390 796 397 789 q 368 803 383 803 q 350 788 350 803 q 357 779 350 779 q 363 783 363 779 q 360 788 363 788 q 358 792 358 789 q 368 799 358 799 q 382 782 382 799 q 379 774 382 776 q 357 765 357 776 q 368 757 357 757 q 383 764 376 757 q 392 743 392 757 q 375 724 392 724 q 358 736 358 724 q 363 740 358 740 q 365 739 364 740 q 369 738 367 738 q 375 744 375 738 q 365 751 375 751 q 353 738 353 751 q 375 719 353 719 q 401 727 393 719 q 410 746 410 735 m 1139 725 q 1133 726 1139 725 q 1125 736 1128 726 l 1115 785 q 1119 795 1113 794 q 1125 796 1125 796 l 1124 800 l 1085 800 l 1086 796 q 1091 795 1086 796 q 1099 785 1096 794 l 1103 764 l 1069 764 l 1065 785 q 1069 795 1063 794 q 1075 796 1075 796 l 1074 800 l 1033 800 l 1035 796 q 1040 795 1035 796 q 1049 785 1046 794 l 1058 736 q 1055 726 1061 726 q 1049 725 1049 725 l 1050 721 l 1090 721 l 1089 725 q 1083 726 1089 725 q 1075 736 1078 726 l 1071 758 l 1104 758 l 1108 736 q 1105 726 1111 726 q 1099 725 1099 725 l 1100 721 l 1140 721 l 1139 725 m 692 721 l 690 725 q 685 726 690 725 q 676 736 679 726 l 667 785 q 670 795 664 794 q 676 796 676 796 l 675 800 l 613 800 q 613 786 614 796 q 613 776 613 776 l 618 776 q 619 785 618 776 q 636 794 621 794 l 642 794 q 650 786 649 794 l 654 764 l 649 764 q 635 770 639 764 q 632 776 632 776 l 628 776 l 635 744 l 639 744 q 640 752 639 744 q 650 760 640 760 l 656 760 l 660 736 q 656 726 663 726 q 650 725 650 725 l 651 721 l 692 721 m 281 725 q 275 726 281 725 q 267 736 269 726 l 257 785 q 260 795 254 794 q 267 796 267 796 l 265 800 l 228 800 q 200 779 200 800 q 208 765 200 771 q 226 758 215 760 l 214 736 q 201 726 208 726 q 194 725 194 725 l 196 721 l 222 721 l 239 753 q 246 757 240 757 l 250 736 q 247 726 253 726 q 240 725 240 725 l 242 721 l 282 721 l 281 725 m 556 724 q 551 731 556 726 q 538 736 547 735 q 531 751 532 740 q 528 773 531 761 q 520 794 526 785 q 497 803 514 803 q 485 798 490 803 q 479 789 479 793 q 486 782 479 782 q 492 790 492 782 q 499 799 492 799 q 508 792 506 799 q 511 775 510 785 q 516 755 513 765 q 528 736 519 744 q 508 727 513 736 q 496 718 503 718 q 489 724 489 718 q 490 727 489 726 q 492 731 492 728 q 485 738 492 738 q 478 728 478 738 q 485 716 478 721 q 499 711 492 711 q 519 720 517 711 q 533 729 522 729 q 550 719 538 719 q 556 724 556 719 m 1149 660 l 1149 668 l 197 668 l 197 660 l 1149 660 m 1149 525 l 1149 611 l 944 611 l 944 525 l 994 525 l 994 564 l 1010 564 l 1010 474 l 990 474 l 990 428 l 1103 428 l 1103 474 l 1083 474 l 1083 564 l 1099 564 l 1099 525 l 1149 525 m 900 564 l 900 611 l 788 611 l 788 564 l 803 564 l 782 532 l 761 564 l 775 564 l 775 611 l 689 611 l 689 564 l 706 564 l 757 500 l 757 474 l 738 474 l 738 428 l 850 428 l 850 474 l 829 474 l 829 501 l 881 564 l 900 564 m 636 428 l 636 474 l 617 474 l 617 564 l 636 564 l 636 611 l 503 611 q 455 595 472 611 q 438 556 438 579 q 455 516 438 532 q 503 500 472 500 l 544 500 l 544 474 l 524 474 l 524 428 l 636 428 m 393 428 l 393 474 l 374 474 l 374 564 l 393 564 l 393 611 l 197 611 l 197 525 l 254 525 l 254 564 l 300 564 l 300 536 l 267 536 l 267 503 l 300 503 l 300 474 l 254 474 l 254 513 l 197 513 l 197 428 l 393 428 m 1149 376 l 1149 385 l 197 385 l 197 376 l 1149 376 m 1011 267 q 995 303 1011 288 q 960 319 979 319 q 939 313 950 319 q 928 289 928 306 q 944 251 928 267 q 979 236 960 236 q 1000 243 989 236 q 1011 267 1011 250 m 282 301 q 273 314 278 308 q 257 319 268 319 q 238 288 236 319 q 226 310 233 301 q 208 319 219 319 q 197 315 201 319 q 192 303 192 311 l 196 301 q 207 310 196 310 q 228 295 221 310 q 240 264 236 281 q 238 244 244 246 q 232 243 232 243 l 233 238 l 272 238 l 271 243 q 265 244 271 243 q 257 256 260 244 q 250 290 250 279 q 263 308 250 308 q 273 305 269 308 q 279 299 276 301 l 282 301 m 1143 238 l 1142 242 q 1136 242 1142 242 q 1128 253 1131 243 l 1118 301 q 1122 312 1115 311 q 1128 313 1128 313 l 1126 317 l 1064 317 q 1065 303 1065 313 q 1064 293 1064 293 l 1069 293 q 1071 302 1069 293 q 1088 311 1072 311 l 1093 311 q 1101 303 1100 311 l 1106 281 l 1100 281 q 1087 287 1090 281 q 1083 293 1083 293 l 1079 293 l 1086 261 l 1090 261 q 1091 269 1090 261 q 1101 276 1092 276 l 1107 276 l 1111 253 q 1108 242 1114 243 q 1101 242 1101 242 l 1103 238 l 1143 238 m 863 313 l 861 317 l 821 317 l 822 313 q 828 312 822 313 q 836 300 833 311 l 843 271 q 844 250 846 257 q 828 243 843 243 q 810 252 817 243 q 800 274 803 261 l 794 300 q 798 312 792 311 q 804 313 804 313 l 804 317 l 771 317 l 772 313 q 778 312 772 313 q 788 300 785 311 l 793 274 q 804 249 796 263 q 832 236 813 236 q 858 247 856 236 q 858 269 861 258 l 851 300 q 856 312 849 311 q 863 313 863 313 m 725 242 q 720 243 725 242 q 713 256 715 244 l 703 300 q 707 312 700 311 q 714 313 714 313 l 713 317 l 693 317 l 653 258 l 646 300 q 649 311 643 310 q 656 313 656 313 l 654 317 l 625 317 l 626 313 q 631 311 626 313 q 639 300 636 310 l 650 238 l 654 236 l 696 297 l 704 256 q 701 243 707 244 q 696 242 696 242 l 697 238 l 726 238 l 725 242 m 575 238 l 574 243 q 568 244 574 243 q 560 256 563 244 l 549 299 q 560 313 544 311 l 558 317 l 517 317 q 493 309 504 317 q 482 286 482 301 q 497 251 482 264 q 531 238 513 238 l 575 238 m 425 242 q 419 242 425 242 q 411 253 414 243 l 401 301 q 405 312 399 311 q 411 313 411 313 l 410 317 l 372 317 q 344 296 344 317 q 352 282 344 288 q 371 275 360 276 l 358 253 q 346 242 353 243 q 339 242 339 242 l 340 238 l 367 238 l 383 269 q 390 274 385 274 l 394 253 q 391 242 397 243 q 385 242 385 242 l 386 238 l 426 238 l 425 242 m 1149 176 l 1149 185 l 197 185 l 197 176 l 1149 176 m 964 64 l 964 67 q 960 68 964 67 q 956 74 956 69 l 956 101 q 960 107 956 104 q 964 110 964 110 l 964 113 l 950 113 l 917 76 l 917 101 q 921 108 917 107 q 925 110 925 110 l 925 113 l 904 113 l 904 110 q 908 108 904 110 q 913 101 913 107 l 913 63 l 917 63 l 951 101 l 951 74 q 948 68 951 69 q 944 67 944 67 l 944 64 l 964 64 m 879 67 q 875 67 879 67 q 872 74 872 67 l 872 103 q 875 110 872 110 q 879 110 879 110 l 879 113 l 839 113 l 836 99 l 839 97 q 842 103 839 97 q 851 108 844 108 l 857 108 q 863 104 863 108 l 863 90 l 857 90 q 849 94 850 90 q 849 97 849 97 l 846 97 l 846 79 l 849 79 q 849 83 849 79 q 857 88 850 88 l 863 88 l 863 72 q 857 68 863 68 l 851 68 q 841 74 844 68 q 838 81 838 81 l 835 79 l 838 64 l 879 64 l 879 67 m 810 113 l 789 113 l 789 110 q 792 108 789 110 q 792 103 794 107 l 779 76 l 772 90 l 778 101 q 783 108 781 106 q 786 110 786 110 l 786 113 l 750 113 l 751 110 q 754 109 751 110 q 761 101 757 108 l 765 94 l 756 76 l 744 101 q 744 108 742 107 q 747 110 747 110 l 747 113 l 729 113 l 729 110 q 732 108 729 110 q 738 101 735 107 l 756 64 l 757 64 q 758 63 757 64 q 758 64 758 63 l 769 86 l 782 64 l 783 64 l 800 101 q 806 109 803 108 q 810 110 810 110 l 810 113 m 667 110 l 667 113 l 646 113 l 646 110 q 648 109 646 110 q 647 103 650 108 l 639 90 l 631 103 q 631 109 628 108 q 635 110 635 110 l 635 113 l 614 113 l 614 110 q 618 109 614 110 q 625 103 622 108 l 636 86 l 636 75 q 633 67 636 68 q 629 67 629 67 l 629 64 l 653 64 l 653 67 q 649 67 653 67 q 646 75 646 68 l 646 86 l 657 103 q 663 109 660 108 q 667 110 667 110 m 590 89 q 583 107 590 100 q 563 114 576 114 q 542 107 549 114 q 535 89 535 100 q 542 70 535 78 q 563 63 549 63 q 583 70 576 63 q 590 89 590 78 m 506 64 l 506 67 q 502 67 506 67 q 499 74 499 68 l 499 101 q 502 109 499 108 q 506 110 506 110 l 506 113 l 481 113 q 463 100 463 113 q 475 88 463 93 l 465 74 q 458 67 461 68 q 454 67 454 67 l 454 64 l 469 64 l 479 81 q 489 86 483 86 l 489 74 q 485 67 489 68 q 482 67 482 67 l 482 64 l 506 64 m 429 64 l 429 67 q 425 68 429 67 q 421 75 421 69 l 421 103 q 425 109 421 108 q 429 110 429 110 l 429 113 l 404 113 l 404 110 q 408 109 404 110 q 413 103 413 108 l 413 90 q 407 93 410 90 l 396 104 q 395 108 393 107 q 397 110 397 110 l 397 113 l 378 113 l 378 110 q 382 108 378 110 q 389 104 386 107 l 403 92 l 385 74 q 378 69 382 71 q 375 67 375 67 l 375 64 l 399 64 l 399 67 q 395 67 399 67 q 396 74 392 68 l 407 85 q 413 88 410 88 l 413 75 q 408 67 413 68 q 404 67 404 67 l 404 64 l 429 64 m 842 -115 q 826 -106 842 -104 l 826 -124 q 842 -115 842 -124 m 729 -114 q 714 -106 729 -103 l 714 -122 q 729 -114 729 -124 m 547 -115 q 532 -106 547 -104 l 532 -124 q 547 -115 547 -124 m 783 -128 l 776 -111 l 769 -128 l 783 -128 m 1111 -122 q 1096 -104 1111 -104 q 1081 -121 1081 -104 q 1096 -139 1081 -139 q 1111 -122 1111 -139 m 613 -122 q 597 -104 613 -104 q 582 -121 582 -104 q 597 -139 582 -139 q 613 -122 613 -139 m 244 761 l 238 761 q 222 768 226 761 q 217 782 217 775 q 228 794 217 794 q 240 788 239 794 l 244 761 m 786 768 q 776 763 782 763 q 771 765 771 763 q 776 769 771 769 q 786 768 783 769 m 378 768 q 368 763 374 763 q 363 765 363 763 q 368 769 363 769 q 378 768 375 769 m 950 743 q 935 725 950 725 q 911 741 922 725 q 900 778 900 757 q 915 797 900 797 q 939 781 928 797 q 950 743 950 765 m 544 533 l 529 533 q 511 549 511 533 q 529 564 511 564 l 544 564 l 544 533 m 389 278 l 382 278 q 366 285 371 278 q 361 299 361 292 q 372 311 361 311 q 385 304 383 311 l 389 278 m 994 260 q 979 242 994 242 q 956 258 967 242 q 944 294 944 274 q 960 314 944 314 q 983 298 972 314 q 994 260 994 282 m 546 253 q 540 243 546 243 l 533 243 q 508 257 518 243 q 497 288 497 271 q 517 311 497 311 l 525 311 q 530 309 529 310 q 533 301 531 308 l 546 253 m 768 110 q 768 97 774 110 q 768 110 761 110 m 489 89 l 485 89 q 474 100 474 89 q 483 108 474 108 q 489 103 489 108 l 489 89 m 579 89 q 576 72 579 79 q 563 65 572 65 q 550 72 554 65 q 546 89 546 79 q 563 111 546 111 q 579 89 579 111 "},"Ò":{"ha":1181,"x_min":101,"x_max":1081,"o":"m 1079 486 q 1044 295 1079 386 q 944 135 1008 204 q 790 24 881 65 q 589 -17 699 -17 q 388 24 478 -17 q 235 134 299 65 q 136 293 171 203 q 101 483 101 383 l 101 486 q 137 677 101 586 q 236 838 172 768 q 390 948 300 907 q 592 989 481 989 q 792 948 701 989 q 946 838 882 907 q 1044 679 1010 769 q 1079 489 1079 589 q 1079 486 1081 488 m 1004 483 l 1004 486 q 973 656 1004 576 q 887 795 942 736 q 756 889 832 854 q 589 924 679 924 q 423 890 499 924 q 292 797 347 856 q 207 658 238 738 q 176 489 176 579 l 176 486 q 208 316 176 396 q 294 177 239 236 q 425 83 349 118 q 592 49 501 49 q 758 83 682 49 q 888 176 833 117 q 974 314 943 235 q 1004 483 1004 393 m 554 1063 l 406 1206 l 490 1247 l 613 1063 l 554 1063 "},"Ú":{"ha":1056,"x_min":129,"x_max":926,"o":"m 926 413 q 897 228 926 308 q 815 94 868 149 q 690 13 763 40 q 528 -15 617 -15 q 367 12 440 -15 q 241 92 294 39 q 158 224 188 146 q 129 404 129 301 l 129 972 l 201 972 l 201 411 q 288 144 201 238 q 531 50 375 50 q 664 72 604 50 q 766 139 724 94 q 831 250 808 183 q 854 404 854 317 l 854 972 l 926 972 l 926 413 m 551 1056 l 493 1056 l 615 1240 l 700 1199 l 551 1056 "},"Û":{"ha":1056,"x_min":129,"x_max":926,"o":"m 926 413 q 897 228 926 308 q 815 94 868 149 q 690 13 763 40 q 528 -15 617 -15 q 367 12 440 -15 q 241 92 294 39 q 158 224 188 146 q 129 404 129 301 l 129 972 l 201 972 l 201 411 q 288 144 201 238 q 531 50 375 50 q 664 72 604 50 q 766 139 724 94 q 831 250 808 183 q 854 404 854 317 l 854 972 l 926 972 l 926 413 m 526 1150 l 424 1056 l 361 1056 l 500 1225 l 556 1225 l 694 1056 l 629 1056 l 526 1150 "},"Ù":{"ha":1056,"x_min":129,"x_max":926,"o":"m 926 413 q 897 228 926 308 q 815 94 868 149 q 690 13 763 40 q 528 -15 617 -15 q 367 12 440 -15 q 241 92 294 39 q 158 224 188 146 q 129 404 129 301 l 129 972 l 201 972 l 201 411 q 288 144 201 238 q 531 50 375 50 q 664 72 604 50 q 766 139 724 94 q 831 250 808 183 q 854 404 854 317 l 854 972 l 926 972 l 926 413 m 504 1056 l 356 1199 l 440 1240 l 563 1056 l 504 1056 "},"ı":{"ha":346,"x_min":139,"x_max":207,"o":"m 207 0 l 139 0 l 139 708 l 207 708 l 207 0 "},"ˆ":{"ha":694,"x_min":181,"x_max":514,"o":"m 346 921 l 243 826 l 181 826 l 319 996 l 375 996 l 514 826 l 449 826 l 346 921 "},"˜":{"ha":694,"x_min":142,"x_max":553,"o":"m 553 956 q 506 853 533 881 q 436 826 478 826 q 393 835 417 826 q 345 855 369 844 q 299 874 321 865 q 258 883 276 883 q 219 869 233 883 q 189 814 204 854 l 142 826 q 189 928 161 901 q 258 956 217 956 q 301 947 278 956 q 349 927 325 938 q 396 908 374 917 q 436 899 418 899 q 476 913 461 899 q 506 968 490 928 l 553 956 "},"¯":{"ha":694,"x_min":139,"x_max":556,"o":"m 556 833 l 139 833 l 139 907 l 556 907 l 556 833 "},"˘":{"ha":694,"x_min":163,"x_max":532,"o":"m 532 996 q 476 869 526 914 q 347 824 425 824 q 219 869 269 824 q 163 996 168 914 l 217 996 q 261 922 229 949 q 347 894 293 894 q 433 922 401 894 q 478 996 465 949 l 532 996 "},"˙":{"ha":694,"x_min":297,"x_max":397,"o":"m 397 826 l 297 826 l 297 939 l 397 939 l 397 826 "},"˚":{"ha":694,"x_min":211,"x_max":483,"o":"m 483 954 q 472 903 483 926 q 442 862 461 879 q 399 834 424 844 q 347 824 374 824 q 295 834 319 824 q 252 862 271 844 q 222 903 233 879 q 211 954 211 926 q 222 1005 211 981 q 252 1047 233 1029 q 295 1074 271 1064 q 347 1085 319 1085 q 399 1074 374 1085 q 442 1047 424 1064 q 472 1005 461 1029 q 483 954 483 981 m 433 954 q 408 1015 433 990 q 347 1040 383 1040 q 286 1015 311 1040 q 261 954 261 990 q 286 893 261 918 q 347 868 311 868 q 408 893 383 868 q 433 954 433 918 "},"¸":{"ha":694,"x_min":225,"x_max":410,"o":"m 350 14 l 410 14 l 301 -206 l 225 -169 l 350 14 "},"˝":{"ha":694,"x_min":142,"x_max":553,"o":"m 413 826 l 353 826 l 476 1011 l 553 971 l 413 826 m 201 826 l 142 826 l 265 1011 l 342 971 l 201 826 "},"˛":{"ha":694,"x_min":260,"x_max":494,"o":"m 339 14 q 331 -64 331 -24 q 494 -185 331 -176 l 494 -228 q 317 -188 375 -232 q 260 -79 260 -144 q 265 -29 260 -53 q 279 14 271 -6 l 339 14 "},"ˇ":{"ha":694,"x_min":181,"x_max":514,"o":"m 349 901 l 451 996 l 514 996 l 375 826 l 319 826 l 181 996 l 246 996 l 349 901 "},"ł":{"ha":429,"x_min":75,"x_max":354,"o":"m 249 486 l 249 0 l 181 0 l 181 467 l 75 433 l 75 503 l 181 535 l 181 1014 l 249 1014 l 249 556 l 354 589 l 354 519 l 249 486 "},"Š":{"ha":889,"x_min":82,"x_max":796,"o":"m 796 251 q 772 144 796 193 q 705 60 747 94 q 603 6 663 25 q 474 -14 544 -14 q 263 25 357 -14 q 82 142 169 64 l 129 196 q 209 131 169 158 q 290 87 249 104 q 378 60 332 69 q 478 51 424 51 q 578 66 532 51 q 656 106 624 81 q 706 167 688 132 q 724 244 724 203 l 724 247 q 712 317 724 286 q 669 372 700 347 q 585 417 638 397 q 449 454 532 438 q 299 497 361 472 q 197 553 236 521 q 139 629 157 586 q 121 728 121 672 l 121 731 q 144 831 121 785 q 210 913 168 878 q 308 967 251 947 q 433 986 365 986 q 616 957 539 986 q 767 868 693 928 l 721 811 q 581 896 651 871 q 431 921 511 921 q 333 906 376 921 q 258 867 289 892 q 210 808 226 842 q 193 738 193 775 l 193 735 q 205 665 193 696 q 248 608 217 633 q 335 561 279 582 q 476 522 390 540 q 721 424 646 488 q 796 254 796 361 l 796 251 m 456 1138 l 558 1232 l 621 1232 l 482 1063 l 426 1063 l 288 1232 l 353 1232 l 456 1138 "},"š":{"ha":690,"x_min":68,"x_max":603,"o":"m 603 193 q 584 108 603 146 q 532 42 565 69 q 454 1 499 15 q 358 -14 410 -14 q 203 15 281 -14 q 68 89 125 43 l 108 143 q 231 74 167 99 q 363 50 294 50 q 484 86 435 50 q 533 185 533 122 l 533 188 q 518 240 533 218 q 476 279 503 263 q 417 307 450 296 q 346 329 383 318 q 259 356 303 342 q 181 391 215 369 q 124 444 146 413 q 103 524 103 476 l 103 526 q 120 605 103 569 q 168 667 138 640 q 242 708 199 693 q 336 722 285 722 q 467 701 400 722 q 588 644 535 681 l 551 588 q 447 639 503 619 q 333 658 390 658 q 216 623 260 658 q 172 535 172 588 l 172 532 q 189 481 172 503 q 233 444 206 460 q 296 417 260 429 q 369 394 332 406 q 454 367 413 382 q 529 330 496 353 q 583 275 563 307 q 603 196 603 243 l 603 193 m 350 901 l 453 996 l 515 996 l 376 826 l 321 826 l 182 996 l 247 996 l 350 901 "},"Ý":{"ha":994,"x_min":44,"x_max":950,"o":"m 950 972 l 533 386 l 533 0 l 461 0 l 461 385 l 44 972 l 135 972 l 499 450 l 864 972 l 950 972 m 531 1056 l 472 1056 l 594 1240 l 679 1199 l 531 1056 "},"ý":{"ha":817,"x_min":54,"x_max":758,"o":"m 758 708 l 451 -25 q 348 -181 404 -136 q 215 -226 292 -226 q 143 -219 175 -226 q 75 -196 111 -211 l 99 -136 q 153 -156 126 -150 q 219 -162 179 -162 q 271 -154 247 -162 q 315 -126 294 -146 q 356 -74 336 -106 q 394 4 375 -42 l 54 708 l 133 708 l 428 75 l 683 708 l 758 708 m 449 821 l 390 821 l 513 1006 l 597 964 l 449 821 "},"Þ":{"ha":935,"x_min":144,"x_max":858,"o":"m 858 497 q 828 361 858 419 q 745 264 797 303 q 624 205 693 225 q 479 185 556 185 l 217 185 l 217 0 l 144 0 l 144 972 l 217 972 l 217 796 l 497 796 q 644 776 578 796 q 758 717 710 756 q 832 624 806 679 q 858 497 858 568 m 786 493 q 765 596 786 551 q 704 669 743 640 q 611 714 665 699 q 492 729 557 729 l 217 729 l 217 251 l 483 251 q 607 269 551 251 q 702 317 663 286 q 764 394 742 349 q 786 493 786 439 "},"þ":{"ha":917,"x_min":129,"x_max":833,"o":"m 833 356 q 803 199 833 268 q 725 83 774 131 q 615 9 676 35 q 489 -17 553 -17 q 392 -3 436 -17 q 312 35 347 11 q 248 89 276 58 q 197 153 219 119 l 197 -222 l 129 -222 l 129 1014 l 197 1014 l 197 550 q 249 617 219 585 q 313 672 278 649 q 392 710 349 696 q 489 725 436 725 q 615 700 553 725 q 725 627 676 675 q 803 511 774 579 q 833 356 833 443 m 760 353 q 738 480 760 424 q 677 576 715 536 q 588 638 639 617 q 482 660 538 660 q 374 638 426 660 q 282 575 322 615 q 217 478 242 535 q 193 354 193 422 q 217 228 193 285 q 282 133 242 172 q 374 71 322 93 q 482 49 426 49 q 591 69 540 49 q 679 129 642 90 q 738 224 717 168 q 760 353 760 281 "},"Ž":{"ha":956,"x_min":94,"x_max":863,"o":"m 863 0 l 94 0 l 94 40 l 760 907 l 118 907 l 118 972 l 863 972 l 863 932 l 197 65 l 863 65 l 863 0 m 486 1138 l 589 1232 l 651 1232 l 513 1063 l 457 1063 l 318 1232 l 383 1232 l 486 1138 "},"ž":{"ha":769,"x_min":81,"x_max":693,"o":"m 693 0 l 81 0 l 81 39 l 592 647 l 100 647 l 100 708 l 693 708 l 693 669 l 182 61 l 693 61 l 693 0 m 399 901 l 501 996 l 564 996 l 425 826 l 369 826 l 231 996 l 296 996 l 399 901 "},"Ł":{"ha":901,"x_min":82,"x_max":829,"o":"m 829 0 l 186 0 l 186 439 l 82 407 l 82 474 l 186 506 l 186 972 l 257 972 l 257 528 l 569 624 l 569 557 l 257 461 l 257 67 l 829 67 l 829 0 "},"Ω":{"ha":1006,"x_min":68,"x_max":990,"o":"m 742 708 l 989 708 l 989 646 l 742 646 l 742 0 l 674 0 l 674 646 l 571 646 l 571 708 l 674 708 l 674 778 q 729 956 674 893 q 885 1018 785 1018 q 942 1014 917 1018 q 990 1001 967 1010 l 990 938 q 936 951 960 947 q 885 956 913 956 q 742 776 742 956 l 742 708 m 239 708 l 486 708 l 486 646 l 239 646 l 239 0 l 171 0 l 171 646 l 68 646 l 68 708 l 171 708 l 171 778 q 226 956 171 893 q 382 1018 282 1018 q 439 1014 414 1018 q 488 1001 464 1010 l 488 938 q 433 951 457 947 q 382 956 410 956 q 239 776 239 956 l 239 708 "},"∕":{"ha":569,"x_min":-93,"x_max":632,"o":"m 557 1053 l 632 1053 l -18 -136 l -93 -136 l 557 1053 "},"Ð":{"ha":1128,"x_min":82,"x_max":1026,"o":"m 186 456 l 82 456 l 82 522 l 186 522 l 186 972 l 510 972 q 719 935 624 972 q 883 833 814 899 q 989 679 951 768 q 1026 488 1026 590 q 989 295 1026 385 q 883 140 951 206 q 719 38 814 75 q 510 0 624 0 l 186 0 l 186 456 m 258 522 l 581 522 l 581 456 l 258 456 l 258 67 l 510 67 q 693 99 611 67 q 832 188 775 132 q 920 321 889 244 q 951 485 951 397 q 920 649 951 572 q 832 783 889 725 q 693 873 775 840 q 510 906 611 906 l 258 906 l 258 522 "},"ð":{"ha":872,"x_min":81,"x_max":789,"o":"m 456 876 l 271 782 l 231 832 l 421 925 l 358 1014 l 446 1014 l 483 957 l 619 1026 l 658 976 l 517 907 l 668 683 q 718 603 696 643 q 756 524 740 564 q 781 439 772 483 q 789 344 789 394 q 763 207 789 272 q 691 92 738 142 q 578 13 644 42 q 429 -17 511 -17 q 290 12 354 -17 q 180 89 226 40 q 107 202 133 138 q 81 339 81 267 q 108 476 81 414 q 182 583 136 539 q 288 651 228 626 q 414 675 349 675 q 556 649 499 675 q 660 588 614 624 l 456 876 m 715 338 q 693 444 715 394 q 631 532 671 494 q 538 592 592 569 q 422 614 485 614 q 310 592 360 614 q 226 533 261 571 q 173 444 192 496 q 154 335 154 393 q 175 227 154 279 q 233 135 196 175 q 323 72 271 96 q 436 47 375 47 q 550 71 499 47 q 638 135 601 94 q 695 227 675 175 q 715 338 715 279 "}}}
